ISO-10303-21;
HEADER;
FILE_DESCRIPTION((''),'1');
FILE_NAME('outfile.stp','2025-12-05T12:50:14',(''),(''),'','','');
FILE_SCHEMA(('CONFIG_CONTROL_DESIGN'));
ENDSEC;
DATA;
#1=CALENDAR_DATE(2000,1,1);
#2=COORDINATED_UNIVERSAL_TIME_OFFSET(0,0,.BEHIND.);
#3=LOCAL_TIME(12,0,0.,#2);
#4=DATE_AND_TIME(#1,#3);
#5=DIMENSIONAL_EXPONENTS(0.,0.,0.,0.,0.,0.,0.);
#6=(
LENGTH_UNIT()
NAMED_UNIT(*)
SI_UNIT(.MILLI.,.METRE.)
);
#7=LENGTH_MEASURE_WITH_UNIT(LENGTH_MEASURE(304.8),#6);
#8=DIMENSIONAL_EXPONENTS(1.,0.,0.,0.,0.,0.,0.);
#9=(
CONVERSION_BASED_UNIT('FOOT',#7)
LENGTH_UNIT()
NAMED_UNIT(#8)
);
#10=UNCERTAINTY_MEASURE_WITH_UNIT(LENGTH_MEASURE(1.E-06),#9,'closure','Threshold below which geometry imperfections (such as overlaps) are not considered errors.');
#11=(
NAMED_UNIT(*)
PLANE_ANGLE_UNIT()
SI_UNIT($,.RADIAN.)
);
#12=PLANE_ANGLE_MEASURE_WITH_UNIT(PLANE_ANGLE_MEASURE(0.0174532925199433),#11);
#13=(
CONVERSION_BASED_UNIT('DEGREES',#12)
NAMED_UNIT(#5)
PLANE_ANGLE_UNIT()
);
#14=(
NAMED_UNIT(*)
SI_UNIT($,.STERADIAN.)
SOLID_ANGLE_UNIT()
);
#15=(
GEOMETRIC_REPRESENTATION_CONTEXT(3)
GLOBAL_UNCERTAINTY_ASSIGNED_CONTEXT((#10))
GLOBAL_UNIT_ASSIGNED_CONTEXT((#9,#13,#14))
REPRESENTATION_CONTEXT('STANDARD','3D')
);
#16=CARTESIAN_POINT('',(0.,0.,0.));
#17=DIRECTION('',(0.,0.,1.));
#18=DIRECTION('',(1.,0.,0.));
#19=AXIS2_PLACEMENT_3D('',#16,#17,#18);
#20=APPLICATION_CONTEXT('configuration controlled 3d designs of mechanical parts and assemblies');
#21=MECHANICAL_CONTEXT('',#20,'mechanical');
#22=APPLICATION_PROTOCOL_DEFINITION('international standard','config_control_design',1994,#20);
#23=DESIGN_CONTEXT('',#20,'design');
#24=PRODUCT('','prodname','',(#21));
#25=PRODUCT_RELATED_PRODUCT_CATEGORY('assembly','',(#24));
#26=PRODUCT_DEFINITION_FORMATION_WITH_SPECIFIED_SOURCE('','',#24,.MADE.);
#27=PRODUCT_DEFINITION('','',#26,#23);
#28=PRODUCT_DEFINITION_SHAPE('','ProductShapeDescription',#27);
#29=SHAPE_REPRESENTATION('',(#19),#15);
#30=SHAPE_DEFINITION_REPRESENTATION(#28,#29);
#31=PERSON('','Doe','John',$,$,$);
#32=ORGANIZATION('','','');
#33=PERSON_AND_ORGANIZATION(#31,#32);
#34=PERSON_AND_ORGANIZATION_ROLE('creator');
#35=PERSON_AND_ORGANIZATION_ROLE('design_owner');
#36=PERSON_AND_ORGANIZATION_ROLE('design_supplier');
#37=APPROVAL_STATUS('approved');
#38=APPROVAL(#37,'');
#39=APPROVAL_DATE_TIME(#4,#38);
#40=APPROVAL_ROLE('approver');
#41=APPROVAL_PERSON_ORGANIZATION(#33,#38,#40);
#42=SECURITY_CLASSIFICATION_LEVEL('unclassified');
#43=SECURITY_CLASSIFICATION('','',#42);
#44=CC_DESIGN_SECURITY_CLASSIFICATION(#43,(#26));
#45=PERSON_AND_ORGANIZATION_ROLE('classification_officer');
#46=CC_DESIGN_PERSON_AND_ORGANIZATION_ASSIGNMENT(#33,#45,(#43));
#47=DATE_TIME_ROLE('classification_date');
#48=CC_DESIGN_DATE_AND_TIME_ASSIGNMENT(#4,#47,(#43));
#49=CC_DESIGN_APPROVAL(#38,(#27,#26,#43));
#50=CC_DESIGN_PERSON_AND_ORGANIZATION_ASSIGNMENT(#33,#34,(#27,#26));
#51=CC_DESIGN_PERSON_AND_ORGANIZATION_ASSIGNMENT(#33,#36,(#26));
#52=DATE_TIME_ROLE('creation_date');
#53=CC_DESIGN_DATE_AND_TIME_ASSIGNMENT(#4,#52,(#27));
#54=CC_DESIGN_PERSON_AND_ORGANIZATION_ASSIGNMENT(#33,#35,(#24));
#55=B_SPLINE_SURFACE_WITH_KNOTS('Surf_HNTVYIKYFQ, Fuselage, 0, 0',2,3,((#56, #57, #58, #62, #63, #64, #65),(#59, #60, #61, #66, #67, #68, #69),(#70, #71, #72, #76, #77, #78, #79),(#73, #74, #75, #80, #81, #82, #83),(#84, #85, #86, #90, #91, #92, #93),(#87, #88, #89, #94, #95, #96, #97),(#98, #99, #100, #104, #105, #106, #107),(#101, #102, #103, #108, #109, #110, #111),(#112, #113, #114, #118, #119, #120, #121),(#115, #116, #117, #122, #123, #124, #125),(#126, #127, #128, #132, #133, #134, #135),(#129, #130, #131, #136, #137, #138, #139),(#140, #141, #142, #146, #147, #148, #149),(#143, #144, #145, #150, #151, #152, #153),(#154, #155, #156, #160, #161, #162, #163),(#157, #158, #159, #164, #165, #166, #167),(#168, #169, #170, #174, #175, #176, #177),(#171, #172, #173, #178, #179, #180, #181),(#182, #183, #184, #188, #189, #190, #191),(#185, #186, #187, #192, #193, #194, #195),(#196, #197, #198, #202, #203, #204, #205),(#199, #200, #201, #206, #207, #208, #209),(#210, #211, #212, #216, #217, #218, #219),(#213, #214, #215, #220, #221, #222, #223),(#224, #225, #226, #230, #231, #232, #233),(#227, #228, #229, #234, #235, #236, #237),(#238, #239, #240, #244, #245, #246, #247),(#241, #242, #243, #248, #249, #250, #251),(#252, #253, #254, #258, #259, #260, #261),(#255, #256, #257, #262, #263, #264, #265),(#266, #267, #268, #272, #273, #274, #275),(#269, #270, #271, #276, #277, #278, #279),(#280, #281, #282, #286, #287, #288, #289),(#283, #284, #285, #290, #291, #292, #293),(#294, #295, #296, #303, #304, #305, #306),(#297, #298, #299, #307, #308, #309, #310),(#300, #301, #302, #311, #312, #313, #314)),.UNSPECIFIED.,.F.,.F.,.F.,(3,2,2,2,2,2,2,2,2,2,2,2,2,2,2,2,2,2,3),(4,3,4),(0.,1.,2.,3.,4.,5.,6.,7.,8.,9.,10.,11.,12.,13.,14.,15.,16.,17.,18.),(0.,1.,2.),.PIECEWISE_BEZIER_KNOTS.);
#56=CARTESIAN_POINT('',(-1.7,0.,-0.402));
#57=CARTESIAN_POINT('',(-1.7,0.,-0.402));
#58=CARTESIAN_POINT('',(-1.7,0.,-0.402));
#59=CARTESIAN_POINT('',(-1.7,-6.07153216591882E-18,-0.432936931812964));
#60=CARTESIAN_POINT('',(-1.7,0.00773423295324106,-0.432936931812964));
#61=CARTESIAN_POINT('',(-1.7,0.0154684659064821,-0.429069815336344));
#62=CARTESIAN_POINT('',(-1.7,0.,-0.402));
#63=CARTESIAN_POINT('',(-1.7,0.,-0.402));
#64=CARTESIAN_POINT('',(-1.7,0.,-0.402));
#65=CARTESIAN_POINT('',(-1.7,0.,-0.402));
#66=CARTESIAN_POINT('',(-1.7,0.0212691406214129,-0.423269140621413));
#67=CARTESIAN_POINT('',(-1.7,0.0270698153363437,-0.417468465906482));
#68=CARTESIAN_POINT('',(-1.7,0.0309369318129643,-0.409734232953241));
#69=CARTESIAN_POINT('',(-1.7,0.0309369318129643,-0.402));
#70=CARTESIAN_POINT('',(-1.65,0.,-0.458));
#71=CARTESIAN_POINT('',(-1.65,0.0176612807837923,-0.458));
#72=CARTESIAN_POINT('',(-1.65,0.0336612807837923,-0.45071861914802));
#73=CARTESIAN_POINT('',(-1.625,0.,-0.47175));
#74=CARTESIAN_POINT('',(-1.625,0.0221455903578021,-0.47175));
#75=CARTESIAN_POINT('',(-1.625,0.0422080903578021,-0.462592263313086));
#76=CARTESIAN_POINT('',(-1.65,0.0452459605878442,-0.438952928722029));
#77=CARTESIAN_POINT('',(-1.65,0.0568306403918962,-0.427187238296039));
#78=CARTESIAN_POINT('',(-1.65,0.064,-0.410937238296039));
#79=CARTESIAN_POINT('',(-1.65,0.064,-0.393));
#80=CARTESIAN_POINT('',(-1.625,0.0567341927683516,-0.447794644969629));
#81=CARTESIAN_POINT('',(-1.625,0.071260295178901,-0.432997026626172));
#82=CARTESIAN_POINT('',(-1.625,0.08025,-0.412559526626172));
#83=CARTESIAN_POINT('',(-1.625,0.08025,-0.39));
#84=CARTESIAN_POINT('',(-1.6,0.,-0.4855));
#85=CARTESIAN_POINT('',(-1.6,0.0266298999318119,-0.4855));
#86=CARTESIAN_POINT('',(-1.6,0.0507548999318119,-0.474465907478153));
#87=CARTESIAN_POINT('',(-1.55,0.,-0.507));
#88=CARTESIAN_POINT('',(-1.55,0.0331838908476723,-0.507));
#89=CARTESIAN_POINT('',(-1.55,0.0632463908476723,-0.492997344515422));
#90=CARTESIAN_POINT('',(-1.6,0.0682224249488589,-0.456636361217229));
#91=CARTESIAN_POINT('',(-1.6,0.0856899499659059,-0.438806814956305));
#92=CARTESIAN_POINT('',(-1.6,0.0965,-0.414181814956305));
#93=CARTESIAN_POINT('',(-1.6,0.0965,-0.387));
#94=CARTESIAN_POINT('',(-1.55,0.0850129181357542,-0.470371016773133));
#95=CARTESIAN_POINT('',(-1.55,0.106779445423836,-0.447744689030844));
#96=CARTESIAN_POINT('',(-1.55,0.12025,-0.416494689030844));
#97=CARTESIAN_POINT('',(-1.55,0.12025,-0.382));
#98=CARTESIAN_POINT('',(-1.5,0.,-0.5285));
#99=CARTESIAN_POINT('',(-1.5,0.0397378817635328,-0.5285));
#100=CARTESIAN_POINT('',(-1.5,0.0757378817635328,-0.511528781552692));
#101=CARTESIAN_POINT('',(-1.45,0.,-0.5465));
#102=CARTESIAN_POINT('',(-1.45,0.0444981488497893,-0.5465));
#103=CARTESIAN_POINT('',(-1.45,0.0848106488497893,-0.527008303565468));
#104=CARTESIAN_POINT('',(-1.5,0.10180341132265,-0.484105672329038));
#105=CARTESIAN_POINT('',(-1.5,0.127868940881766,-0.456682563105383));
#106=CARTESIAN_POINT('',(-1.5,0.144,-0.418807563105383));
#107=CARTESIAN_POINT('',(-1.5,0.144,-0.377));
#108=CARTESIAN_POINT('',(-1.45,0.113998611637342,-0.495512455348202));
#109=CARTESIAN_POINT('',(-1.45,0.143186574424895,-0.464016607130935));
#110=CARTESIAN_POINT('',(-1.45,0.16125,-0.420516607130935));
#111=CARTESIAN_POINT('',(-1.45,0.16125,-0.3725));
#112=CARTESIAN_POINT('',(-1.4,0.,-0.5645));
#113=CARTESIAN_POINT('',(-1.4,0.0492584159360458,-0.5645));
#114=CARTESIAN_POINT('',(-1.4,0.0938834159360458,-0.542487825578244));
#115=CARTESIAN_POINT('',(-1.3,0.,-0.59025));
#116=CARTESIAN_POINT('',(-1.3,0.0560193749860913,-0.59025));
#117=CARTESIAN_POINT('',(-1.3,0.106769374986091,-0.564121044865778));
#118=CARTESIAN_POINT('',(-1.4,0.126193811952034,-0.506919238367366));
#119=CARTESIAN_POINT('',(-1.4,0.158504207968023,-0.471350651156487));
#120=CARTESIAN_POINT('',(-1.4,0.1785,-0.422225651156487));
#121=CARTESIAN_POINT('',(-1.4,0.1785,-0.368));
#122=CARTESIAN_POINT('',(-1.3,0.143514531239569,-0.521900317298667));
#123=CARTESIAN_POINT('',(-1.3,0.180259687493046,-0.479679589731556));
#124=CARTESIAN_POINT('',(-1.3,0.203,-0.421367089731556));
#125=CARTESIAN_POINT('',(-1.3,0.203,-0.357));
#126=CARTESIAN_POINT('',(-1.2,0.,-0.616));
#127=CARTESIAN_POINT('',(-1.2,0.0627803340361368,-0.616));
#128=CARTESIAN_POINT('',(-1.2,0.119655334036137,-0.585754264153312));
#129=CARTESIAN_POINT('',(-1.1,0.,-0.63275));
#130=CARTESIAN_POINT('',(-1.1,0.0672646436101466,-0.63275));
#131=CARTESIAN_POINT('',(-1.1,0.128202143610147,-0.599227642769921));
#132=CARTESIAN_POINT('',(-1.2,0.160835250527103,-0.536881396229968));
#133=CARTESIAN_POINT('',(-1.2,0.202015167018068,-0.488008528306624));
#134=CARTESIAN_POINT('',(-1.2,0.2275,-0.420508528306624));
#135=CARTESIAN_POINT('',(-1.2,0.2275,-0.346));
#136=CARTESIAN_POINT('',(-1.1,0.17232348270761,-0.545060214154881));
#137=CARTESIAN_POINT('',(-1.1,0.216444821805073,-0.490892785539842));
#138=CARTESIAN_POINT('',(-1.1,0.24375,-0.416080285539842));
#139=CARTESIAN_POINT('',(-1.1,0.24375,-0.3335));
#140=CARTESIAN_POINT('',(-1.,0.,-0.6495));
#141=CARTESIAN_POINT('',(-1.,0.0717489531841564,-0.6495));
#142=CARTESIAN_POINT('',(-1.,0.136748953184156,-0.61270102138653));
#143=CARTESIAN_POINT('',(-0.9,0.,-0.6615));
#144=CARTESIAN_POINT('',(-0.9,0.0749224645749941,-0.6615));
#145=CARTESIAN_POINT('',(-0.9,0.142797464574994,-0.622068522155429));
#146=CARTESIAN_POINT('',(-1.,0.183811714888117,-0.553239032079794));
#147=CARTESIAN_POINT('',(-1.,0.230874476592078,-0.493777042773059));
#148=CARTESIAN_POINT('',(-1.,0.26,-0.411652042773059));
#149=CARTESIAN_POINT('',(-1.,0.26,-0.321));
#150=CARTESIAN_POINT('',(-0.9,0.191941848431246,-0.558352783233143));
#151=CARTESIAN_POINT('',(-0.9,0.241086232287497,-0.494637044310858));
#152=CARTESIAN_POINT('',(-0.9,0.2715,-0.406637044310858));
#153=CARTESIAN_POINT('',(-0.9,0.2715,-0.3095));
#154=CARTESIAN_POINT('',(-0.8,0.,-0.6735));
#155=CARTESIAN_POINT('',(-0.8,0.0780959759658318,-0.6735));
#156=CARTESIAN_POINT('',(-0.8,0.148845975965832,-0.631436022924328));
#157=CARTESIAN_POINT('',(-0.7,0.,-0.6815));
#158=CARTESIAN_POINT('',(-0.7,0.0801656573076824,-0.6815));
#159=CARTESIAN_POINT('',(-0.7,0.152790657307682,-0.637307619290673));
#160=CARTESIAN_POINT('',(-0.8,0.200071981974374,-0.563466534386492));
#161=CARTESIAN_POINT('',(-0.8,0.251297987982916,-0.495497045848657));
#162=CARTESIAN_POINT('',(-0.8,0.283,-0.401622045848657));
#163=CARTESIAN_POINT('',(-0.8,0.283,-0.298));
#164=CARTESIAN_POINT('',(-0.7,0.205374242980762,-0.565898928936009));
#165=CARTESIAN_POINT('',(-0.7,0.257957828653841,-0.494490238581345));
#166=CARTESIAN_POINT('',(-0.7,0.2905,-0.395865238581345));
#167=CARTESIAN_POINT('',(-0.7,0.2905,-0.287));
#168=CARTESIAN_POINT('',(-0.6,0.,-0.6895));
#169=CARTESIAN_POINT('',(-0.6,0.0822353386495331,-0.6895));
#170=CARTESIAN_POINT('',(-0.6,0.156735338649533,-0.643179215657017));
#171=CARTESIAN_POINT('',(-0.5,0.,-0.69475));
#172=CARTESIAN_POINT('',(-0.5,0.0834771474546435,-0.69475));
#173=CARTESIAN_POINT('',(-0.5,0.159102147454643,-0.646776902309837));
#174=CARTESIAN_POINT('',(-0.6,0.21067650398715,-0.568331323485525));
#175=CARTESIAN_POINT('',(-0.6,0.264617669324767,-0.493483431314033));
#176=CARTESIAN_POINT('',(-0.6,0.298,-0.390108431314033));
#177=CARTESIAN_POINT('',(-0.6,0.298,-0.276));
#178=CARTESIAN_POINT('',(-0.5,0.213857860590983,-0.569259103464755));
#179=CARTESIAN_POINT('',(-0.5,0.268613573727322,-0.491741304619673));
#180=CARTESIAN_POINT('',(-0.5,0.3025,-0.384678804619673));
#181=CARTESIAN_POINT('',(-0.5,0.3025,-0.2665));
#182=CARTESIAN_POINT('',(-0.4,0.,-0.7));
#183=CARTESIAN_POINT('',(-0.4,0.0847189562597539,-0.7));
#184=CARTESIAN_POINT('',(-0.4,0.161468956259754,-0.650374588962656));
#185=CARTESIAN_POINT('',(-0.3,0.,-0.7015));
#186=CARTESIAN_POINT('',(-0.3,0.085132892528124,-0.7015));
#187=CARTESIAN_POINT('',(-0.3,0.162257892528124,-0.650922408389705));
#188=CARTESIAN_POINT('',(-0.4,0.217039217194815,-0.570186883443984));
#189=CARTESIAN_POINT('',(-0.4,0.272609478129877,-0.489999177925313));
#190=CARTESIAN_POINT('',(-0.4,0.307,-0.379249177925313));
#191=CARTESIAN_POINT('',(-0.4,0.307,-0.257));
#192=CARTESIAN_POINT('',(-0.3,0.218099669396093,-0.569196112584558));
#193=CARTESIAN_POINT('',(-0.3,0.273941446264062,-0.48746981677941));
#194=CARTESIAN_POINT('',(-0.3,0.3085,-0.37459481677941));
#195=CARTESIAN_POINT('',(-0.3,0.3085,-0.25));
#196=CARTESIAN_POINT('',(-0.2,0.,-0.703));
#197=CARTESIAN_POINT('',(-0.2,0.0855468287964942,-0.703));
#198=CARTESIAN_POINT('',(-0.2,0.163046828796494,-0.651470227816754));
#199=CARTESIAN_POINT('',(-0.1,0.,-0.69975));
#200=CARTESIAN_POINT('',(-0.1,0.0849949137720006,-0.69975));
#201=CARTESIAN_POINT('',(-0.1,0.161994913772001,-0.64768812690834));
#202=CARTESIAN_POINT('',(-0.2,0.219160121597371,-0.568205341725131));
#203=CARTESIAN_POINT('',(-0.2,0.275273414398247,-0.484940455633508));
#204=CARTESIAN_POINT('',(-0.2,0.31,-0.369940455633507));
#205=CARTESIAN_POINT('',(-0.2,0.31,-0.243));
#206=CARTESIAN_POINT('',(-0.1,0.217746185329,-0.56356344036251));
#207=CARTESIAN_POINT('',(-0.1,0.273497456886,-0.47943875381668));
#208=CARTESIAN_POINT('',(-0.1,0.308,-0.36325125381668));
#209=CARTESIAN_POINT('',(-0.1,0.308,-0.235));
#210=CARTESIAN_POINT('',(0.,0.,-0.6965));
#211=CARTESIAN_POINT('',(0.,0.0844429987475071,-0.6965));
#212=CARTESIAN_POINT('',(0.,0.160942998747507,-0.643906025999926));
#213=CARTESIAN_POINT('',(0.1,0.,-0.6855));
#214=CARTESIAN_POINT('',(0.1,0.0827872536740266,-0.6855));
#215=CARTESIAN_POINT('',(0.1,0.157787253674027,-0.633410121597371));
#216=CARTESIAN_POINT('',(0.,0.21633224906063,-0.558921538999889));
#217=CARTESIAN_POINT('',(0.,0.271721499373754,-0.473937051999852));
#218=CARTESIAN_POINT('',(0.,0.306,-0.356562051999852));
#219=CARTESIAN_POINT('',(0.,0.306,-0.227));
#220=CARTESIAN_POINT('',(0.1,0.21209044025552,-0.549240182396056));
#221=CARTESIAN_POINT('',(0.1,0.266393626837013,-0.465070243194741));
#222=CARTESIAN_POINT('',(0.1,0.3,-0.348820243194741));
#223=CARTESIAN_POINT('',(0.1,0.3,-0.2205));
#224=CARTESIAN_POINT('',(0.2,0.,-0.6745));
#225=CARTESIAN_POINT('',(0.2,0.0811315086005461,-0.6745));
#226=CARTESIAN_POINT('',(0.2,0.154631508600546,-0.622914217194815));
#227=CARTESIAN_POINT('',(0.3,0.,-0.6535));
#228=CARTESIAN_POINT('',(0.3,0.0782339547219552,-0.6535));
#229=CARTESIAN_POINT('',(0.3,0.149108954721955,-0.60342650398715));
#230=CARTESIAN_POINT('',(0.2,0.20784863145041,-0.539558825792223));
#231=CARTESIAN_POINT('',(0.2,0.261065754300273,-0.456203434389631));
#232=CARTESIAN_POINT('',(0.2,0.294,-0.341078434389631));
#233=CARTESIAN_POINT('',(0.2,0.294,-0.214));
#234=CARTESIAN_POINT('',(0.3,0.200425466041466,-0.522514755980725));
#235=CARTESIAN_POINT('',(0.3,0.251741977360978,-0.4416030079743));
#236=CARTESIAN_POINT('',(0.3,0.2835,-0.3298530079743));
#237=CARTESIAN_POINT('',(0.3,0.2835,-0.2065));
#238=CARTESIAN_POINT('',(0.4,0.,-0.6325));
#239=CARTESIAN_POINT('',(0.4,0.0753364008433642,-0.6325));
#240=CARTESIAN_POINT('',(0.4,0.143586400843364,-0.583938790779484));
#241=CARTESIAN_POINT('',(0.5,0.,-0.5985));
#242=CARTESIAN_POINT('',(0.5,0.0712660275377246,-0.5985));
#243=CARTESIAN_POINT('',(0.5,0.135828527537725,-0.552515279388647));
#244=CARTESIAN_POINT('',(0.4,0.193002300632523,-0.505470686169226));
#245=CARTESIAN_POINT('',(0.4,0.242418200421682,-0.427002581558968));
#246=CARTESIAN_POINT('',(0.4,0.273,-0.318627581558968));
#247=CARTESIAN_POINT('',(0.4,0.273,-0.199));
#248=CARTESIAN_POINT('',(0.5,0.182574520653293,-0.47821041908297));
#249=CARTESIAN_POINT('',(0.5,0.229320513768862,-0.403905558777293));
#250=CARTESIAN_POINT('',(0.5,0.25825,-0.301280558777293));
#251=CARTESIAN_POINT('',(0.5,0.25825,-0.188));
#252=CARTESIAN_POINT('',(0.6,0.,-0.5645));
#253=CARTESIAN_POINT('',(0.6,0.0671956542320849,-0.5645));
#254=CARTESIAN_POINT('',(0.6,0.128070654232085,-0.521091767997809));
#255=CARTESIAN_POINT('',(0.7,0.,-0.518));
#256=CARTESIAN_POINT('',(0.7,0.0625043765238901,-0.518));
#257=CARTESIAN_POINT('',(0.7,0.11912937652389,-0.477896394692169));
#258=CARTESIAN_POINT('',(0.6,0.172146740674064,-0.450950151996713));
#259=CARTESIAN_POINT('',(0.6,0.216222827116042,-0.380808535995618));
#260=CARTESIAN_POINT('',(0.6,0.2435,-0.283933535995618));
#261=CARTESIAN_POINT('',(0.6,0.2435,-0.177));
#262=CARTESIAN_POINT('',(0.7,0.160128282392918,-0.413094592038254));
#263=CARTESIAN_POINT('',(0.7,0.201127188261945,-0.348292789384338));
#264=CARTESIAN_POINT('',(0.7,0.2265,-0.258792789384338));
#265=CARTESIAN_POINT('',(0.7,0.2265,-0.16));
#266=CARTESIAN_POINT('',(0.8,0.,-0.4715));
#267=CARTESIAN_POINT('',(0.8,0.0578130988156953,-0.4715));
#268=CARTESIAN_POINT('',(0.8,0.110188098815695,-0.43470102138653));
#269=CARTESIAN_POINT('',(0.9,0.,-0.41875));
#270=CARTESIAN_POINT('',(0.9,0.0533977786197472,-0.41875));
#271=CARTESIAN_POINT('',(0.9,0.101772778619747,-0.385563706501551));
#272=CARTESIAN_POINT('',(0.8,0.148109824111771,-0.375239032079794));
#273=CARTESIAN_POINT('',(0.8,0.186031549407848,-0.315777042773059));
#274=CARTESIAN_POINT('',(0.8,0.2095,-0.233652042773059));
#275=CARTESIAN_POINT('',(0.8,0.2095,-0.143));
#276=CARTESIAN_POINT('',(0.9,0.13679833396481,-0.331939309752326));
#277=CARTESIAN_POINT('',(0.9,0.171823889309874,-0.278314913003101));
#278=CARTESIAN_POINT('',(0.9,0.1935,-0.204252413003101));
#279=CARTESIAN_POINT('',(0.9,0.1935,-0.1225));
#280=CARTESIAN_POINT('',(1.,0.,-0.366));
#281=CARTESIAN_POINT('',(1.,0.0489824584237991,-0.366));
#282=CARTESIAN_POINT('',(1.,0.0933574584237991,-0.336426391616572));
#283=CARTESIAN_POINT('',(1.1,0.,-0.315));
#284=CARTESIAN_POINT('',(1.1,0.0455329895207146,-0.315));
#285=CARTESIAN_POINT('',(1.1,0.0867829895207146,-0.288731018310932));
#286=CARTESIAN_POINT('',(1.,0.125486843817849,-0.288639587424858));
#287=CARTESIAN_POINT('',(1.,0.1576162292119,-0.240852783233143));
#288=CARTESIAN_POINT('',(1.,0.1775,-0.174852783233143));
#289=CARTESIAN_POINT('',(1.,0.1775,-0.102));
#290=CARTESIAN_POINT('',(1.1,0.116649742140536,-0.246284027466398));
#291=CARTESIAN_POINT('',(1.1,0.146516494760357,-0.203837036621864));
#292=CARTESIAN_POINT('',(1.1,0.165,-0.145212036621864));
#293=CARTESIAN_POINT('',(1.1,0.165,-0.0805));
#294=CARTESIAN_POINT('',(1.2,0.,-0.264));
#295=CARTESIAN_POINT('',(1.2,0.0420835206176302,-0.264));
#296=CARTESIAN_POINT('',(1.2,0.0802085206176302,-0.241035645005292));
#297=CARTESIAN_POINT('',(1.3,0.,-0.22225));
#298=CARTESIAN_POINT('',(1.3,0.0400138392757795,-0.22225));
#299=CARTESIAN_POINT('',(1.3,0.0762638392757795,-0.201890138925424));
#300=CARTESIAN_POINT('',(1.4,0.,-0.1805));
#301=CARTESIAN_POINT('',(1.4,0.0379441579339289,-0.1805));
#302=CARTESIAN_POINT('',(1.4,0.0723191579339288,-0.162744632845555));
#303=CARTESIAN_POINT('',(1.2,0.107812640463223,-0.203928467507939));
#304=CARTESIAN_POINT('',(1.2,0.135416760308815,-0.166821290010585));
#305=CARTESIAN_POINT('',(1.2,0.1525,-0.115571290010585));
#306=CARTESIAN_POINT('',(1.2,0.1525,-0.059));
#307=CARTESIAN_POINT('',(1.3,0.102510379456835,-0.168991458388136));
#308=CARTESIAN_POINT('',(1.3,0.12875691963789,-0.136092777850848));
#309=CARTESIAN_POINT('',(1.3,0.145,-0.0906552778508478));
#310=CARTESIAN_POINT('',(1.3,0.145,-0.0405));
#311=CARTESIAN_POINT('',(1.4,0.0972081184504466,-0.134054449268333));
#312=CARTESIAN_POINT('',(1.4,0.122097078966964,-0.105364265691111));
#313=CARTESIAN_POINT('',(1.4,0.1375,-0.0657392656911107));
#314=CARTESIAN_POINT('',(1.4,0.1375,-0.022));
#315=B_SPLINE_SURFACE_WITH_KNOTS('Surf_HNTVYIKYFQ, Fuselage, 0, 1',2,3,((#316, #317, #318, #322, #323, #324, #325),(#319, #320, #321, #326, #327, #328, #329),(#330, #331, #332, #336, #337, #338, #339),(#333, #334, #335, #340, #341, #342, #343),(#344, #345, #346, #350, #351, #352, #353),(#347, #348, #349, #354, #355, #356, #357),(#358, #359, #360, #364, #365, #366, #367),(#361, #362, #363, #368, #369, #370, #371),(#372, #373, #374, #378, #379, #380, #381),(#375, #376, #377, #382, #383, #384, #385),(#386, #387, #388, #392, #393, #394, #395),(#389, #390, #391, #396, #397, #398, #399),(#400, #401, #402, #406, #407, #408, #409),(#403, #404, #405, #410, #411, #412, #413),(#414, #415, #416, #420, #421, #422, #423),(#417, #418, #419, #424, #425, #426, #427),(#428, #429, #430, #434, #435, #436, #437),(#431, #432, #433, #438, #439, #440, #441),(#442, #443, #444, #448, #449, #450, #451),(#445, #446, #447, #452, #453, #454, #455),(#456, #457, #458, #462, #463, #464, #465),(#459, #460, #461, #466, #467, #468, #469),(#470, #471, #472, #476, #477, #478, #479),(#473, #474, #475, #480, #481, #482, #483),(#484, #485, #486, #490, #491, #492, #493),(#487, #488, #489, #494, #495, #496, #497),(#498, #499, #500, #504, #505, #506, #507),(#501, #502, #503, #508, #509, #510, #511),(#512, #513, #514, #518, #519, #520, #521),(#515, #516, #517, #522, #523, #524, #525),(#526, #527, #528, #532, #533, #534, #535),(#529, #530, #531, #536, #537, #538, #539),(#540, #541, #542, #546, #547, #548, #549),(#543, #544, #545, #550, #551, #552, #553),(#554, #555, #556, #563, #564, #565, #566),(#557, #558, #559, #567, #568, #569, #570),(#560, #561, #562, #571, #572, #573, #574)),.UNSPECIFIED.,.F.,.F.,.F.,(3,2,2,2,2,2,2,2,2,2,2,2,2,2,2,2,2,2,3),(4,3,4),(0.,1.,2.,3.,4.,5.,6.,7.,8.,9.,10.,11.,12.,13.,14.,15.,16.,17.,18.),(0.,1.,2.),.PIECEWISE_BEZIER_KNOTS.);
#316=CARTESIAN_POINT('',(-1.7,0.,-0.402));
#317=CARTESIAN_POINT('',(-1.7,0.,-0.402));
#318=CARTESIAN_POINT('',(-1.7,0.,-0.402));
#319=CARTESIAN_POINT('',(-1.7,-0.0309369318129643,-0.402));
#320=CARTESIAN_POINT('',(-1.7,-0.0309369318129643,-0.409734232953241));
#321=CARTESIAN_POINT('',(-1.7,-0.0270698153363437,-0.417468465906482));
#322=CARTESIAN_POINT('',(-1.7,0.,-0.402));
#323=CARTESIAN_POINT('',(-1.7,0.,-0.402));
#324=CARTESIAN_POINT('',(-1.7,0.,-0.402));
#325=CARTESIAN_POINT('',(-1.7,0.,-0.402));
#326=CARTESIAN_POINT('',(-1.7,-0.0212691406214129,-0.423269140621413));
#327=CARTESIAN_POINT('',(-1.7,-0.0154684659064821,-0.429069815336344));
#328=CARTESIAN_POINT('',(-1.7,-0.00773423295324107,-0.432936931812964));
#329=CARTESIAN_POINT('',(-1.7,-6.07153216591882E-18,-0.432936931812964));
#330=CARTESIAN_POINT('',(-1.65,-0.064,-0.393));
#331=CARTESIAN_POINT('',(-1.65,-0.064,-0.410937238296039));
#332=CARTESIAN_POINT('',(-1.65,-0.0568306403918962,-0.427187238296039));
#333=CARTESIAN_POINT('',(-1.625,-0.08025,-0.39));
#334=CARTESIAN_POINT('',(-1.625,-0.08025,-0.412559526626172));
#335=CARTESIAN_POINT('',(-1.625,-0.0712602951789011,-0.432997026626172));
#336=CARTESIAN_POINT('',(-1.65,-0.0452459605878443,-0.438952928722029));
#337=CARTESIAN_POINT('',(-1.65,-0.0336612807837923,-0.45071861914802));
#338=CARTESIAN_POINT('',(-1.65,-0.0176612807837923,-0.458));
#339=CARTESIAN_POINT('',(-1.65,0.,-0.458));
#340=CARTESIAN_POINT('',(-1.625,-0.0567341927683516,-0.447794644969629));
#341=CARTESIAN_POINT('',(-1.625,-0.0422080903578021,-0.462592263313086));
#342=CARTESIAN_POINT('',(-1.625,-0.0221455903578021,-0.47175));
#343=CARTESIAN_POINT('',(-1.625,0.,-0.47175));
#344=CARTESIAN_POINT('',(-1.6,-0.0965,-0.387));
#345=CARTESIAN_POINT('',(-1.6,-0.0965,-0.414181814956305));
#346=CARTESIAN_POINT('',(-1.6,-0.0856899499659059,-0.438806814956305));
#347=CARTESIAN_POINT('',(-1.55,-0.12025,-0.382));
#348=CARTESIAN_POINT('',(-1.55,-0.12025,-0.416494689030844));
#349=CARTESIAN_POINT('',(-1.55,-0.106779445423836,-0.447744689030844));
#350=CARTESIAN_POINT('',(-1.6,-0.0682224249488589,-0.456636361217229));
#351=CARTESIAN_POINT('',(-1.6,-0.0507548999318119,-0.474465907478153));
#352=CARTESIAN_POINT('',(-1.6,-0.0266298999318119,-0.4855));
#353=CARTESIAN_POINT('',(-1.6,0.,-0.4855));
#354=CARTESIAN_POINT('',(-1.55,-0.0850129181357542,-0.470371016773133));
#355=CARTESIAN_POINT('',(-1.55,-0.0632463908476723,-0.492997344515422));
#356=CARTESIAN_POINT('',(-1.55,-0.0331838908476723,-0.507));
#357=CARTESIAN_POINT('',(-1.55,0.,-0.507));
#358=CARTESIAN_POINT('',(-1.5,-0.144,-0.377));
#359=CARTESIAN_POINT('',(-1.5,-0.144,-0.418807563105383));
#360=CARTESIAN_POINT('',(-1.5,-0.127868940881766,-0.456682563105383));
#361=CARTESIAN_POINT('',(-1.45,-0.16125,-0.3725));
#362=CARTESIAN_POINT('',(-1.45,-0.16125,-0.420516607130935));
#363=CARTESIAN_POINT('',(-1.45,-0.143186574424895,-0.464016607130935));
#364=CARTESIAN_POINT('',(-1.5,-0.10180341132265,-0.484105672329038));
#365=CARTESIAN_POINT('',(-1.5,-0.0757378817635328,-0.511528781552692));
#366=CARTESIAN_POINT('',(-1.5,-0.0397378817635328,-0.5285));
#367=CARTESIAN_POINT('',(-1.5,0.,-0.5285));
#368=CARTESIAN_POINT('',(-1.45,-0.113998611637342,-0.495512455348202));
#369=CARTESIAN_POINT('',(-1.45,-0.0848106488497893,-0.527008303565468));
#370=CARTESIAN_POINT('',(-1.45,-0.0444981488497893,-0.5465));
#371=CARTESIAN_POINT('',(-1.45,0.,-0.5465));
#372=CARTESIAN_POINT('',(-1.4,-0.1785,-0.368));
#373=CARTESIAN_POINT('',(-1.4,-0.1785,-0.422225651156487));
#374=CARTESIAN_POINT('',(-1.4,-0.158504207968023,-0.471350651156487));
#375=CARTESIAN_POINT('',(-1.3,-0.203,-0.357));
#376=CARTESIAN_POINT('',(-1.3,-0.203,-0.421367089731556));
#377=CARTESIAN_POINT('',(-1.3,-0.180259687493046,-0.479679589731556));
#378=CARTESIAN_POINT('',(-1.4,-0.126193811952034,-0.506919238367366));
#379=CARTESIAN_POINT('',(-1.4,-0.0938834159360458,-0.542487825578244));
#380=CARTESIAN_POINT('',(-1.4,-0.0492584159360458,-0.5645));
#381=CARTESIAN_POINT('',(-1.4,0.,-0.5645));
#382=CARTESIAN_POINT('',(-1.3,-0.143514531239568,-0.521900317298667));
#383=CARTESIAN_POINT('',(-1.3,-0.106769374986091,-0.564121044865778));
#384=CARTESIAN_POINT('',(-1.3,-0.0560193749860913,-0.59025));
#385=CARTESIAN_POINT('',(-1.3,0.,-0.59025));
#386=CARTESIAN_POINT('',(-1.2,-0.2275,-0.346));
#387=CARTESIAN_POINT('',(-1.2,-0.2275,-0.420508528306624));
#388=CARTESIAN_POINT('',(-1.2,-0.202015167018068,-0.488008528306624));
#389=CARTESIAN_POINT('',(-1.1,-0.24375,-0.3335));
#390=CARTESIAN_POINT('',(-1.1,-0.24375,-0.416080285539842));
#391=CARTESIAN_POINT('',(-1.1,-0.216444821805073,-0.490892785539842));
#392=CARTESIAN_POINT('',(-1.2,-0.160835250527103,-0.536881396229968));
#393=CARTESIAN_POINT('',(-1.2,-0.119655334036137,-0.585754264153312));
#394=CARTESIAN_POINT('',(-1.2,-0.0627803340361368,-0.616));
#395=CARTESIAN_POINT('',(-1.2,0.,-0.616));
#396=CARTESIAN_POINT('',(-1.1,-0.17232348270761,-0.545060214154881));
#397=CARTESIAN_POINT('',(-1.1,-0.128202143610147,-0.599227642769921));
#398=CARTESIAN_POINT('',(-1.1,-0.0672646436101466,-0.63275));
#399=CARTESIAN_POINT('',(-1.1,0.,-0.63275));
#400=CARTESIAN_POINT('',(-1.,-0.26,-0.321));
#401=CARTESIAN_POINT('',(-1.,-0.26,-0.411652042773059));
#402=CARTESIAN_POINT('',(-1.,-0.230874476592078,-0.493777042773059));
#403=CARTESIAN_POINT('',(-0.9,-0.2715,-0.3095));
#404=CARTESIAN_POINT('',(-0.9,-0.2715,-0.406637044310858));
#405=CARTESIAN_POINT('',(-0.9,-0.241086232287497,-0.494637044310858));
#406=CARTESIAN_POINT('',(-1.,-0.183811714888117,-0.553239032079794));
#407=CARTESIAN_POINT('',(-1.,-0.136748953184156,-0.61270102138653));
#408=CARTESIAN_POINT('',(-1.,-0.0717489531841564,-0.6495));
#409=CARTESIAN_POINT('',(-1.,0.,-0.6495));
#410=CARTESIAN_POINT('',(-0.9,-0.191941848431246,-0.558352783233143));
#411=CARTESIAN_POINT('',(-0.9,-0.142797464574994,-0.622068522155429));
#412=CARTESIAN_POINT('',(-0.9,-0.0749224645749941,-0.6615));
#413=CARTESIAN_POINT('',(-0.9,0.,-0.6615));
#414=CARTESIAN_POINT('',(-0.8,-0.283,-0.298));
#415=CARTESIAN_POINT('',(-0.8,-0.283,-0.401622045848657));
#416=CARTESIAN_POINT('',(-0.8,-0.251297987982916,-0.495497045848657));
#417=CARTESIAN_POINT('',(-0.7,-0.2905,-0.287));
#418=CARTESIAN_POINT('',(-0.7,-0.2905,-0.395865238581345));
#419=CARTESIAN_POINT('',(-0.7,-0.257957828653841,-0.494490238581345));
#420=CARTESIAN_POINT('',(-0.8,-0.200071981974374,-0.563466534386492));
#421=CARTESIAN_POINT('',(-0.8,-0.148845975965832,-0.631436022924328));
#422=CARTESIAN_POINT('',(-0.8,-0.0780959759658318,-0.6735));
#423=CARTESIAN_POINT('',(-0.8,0.,-0.6735));
#424=CARTESIAN_POINT('',(-0.7,-0.205374242980762,-0.565898928936009));
#425=CARTESIAN_POINT('',(-0.7,-0.152790657307682,-0.637307619290673));
#426=CARTESIAN_POINT('',(-0.7,-0.0801656573076824,-0.6815));
#427=CARTESIAN_POINT('',(-0.7,0.,-0.6815));
#428=CARTESIAN_POINT('',(-0.6,-0.298,-0.276));
#429=CARTESIAN_POINT('',(-0.6,-0.298,-0.390108431314033));
#430=CARTESIAN_POINT('',(-0.6,-0.264617669324767,-0.493483431314033));
#431=CARTESIAN_POINT('',(-0.5,-0.3025,-0.2665));
#432=CARTESIAN_POINT('',(-0.5,-0.3025,-0.384678804619673));
#433=CARTESIAN_POINT('',(-0.5,-0.268613573727322,-0.491741304619673));
#434=CARTESIAN_POINT('',(-0.6,-0.21067650398715,-0.568331323485525));
#435=CARTESIAN_POINT('',(-0.6,-0.156735338649533,-0.643179215657017));
#436=CARTESIAN_POINT('',(-0.6,-0.0822353386495331,-0.6895));
#437=CARTESIAN_POINT('',(-0.6,0.,-0.6895));
#438=CARTESIAN_POINT('',(-0.5,-0.213857860590983,-0.569259103464755));
#439=CARTESIAN_POINT('',(-0.5,-0.159102147454643,-0.646776902309837));
#440=CARTESIAN_POINT('',(-0.5,-0.0834771474546435,-0.69475));
#441=CARTESIAN_POINT('',(-0.5,0.,-0.69475));
#442=CARTESIAN_POINT('',(-0.4,-0.307,-0.257));
#443=CARTESIAN_POINT('',(-0.4,-0.307,-0.379249177925313));
#444=CARTESIAN_POINT('',(-0.4,-0.272609478129877,-0.489999177925313));
#445=CARTESIAN_POINT('',(-0.3,-0.3085,-0.25));
#446=CARTESIAN_POINT('',(-0.3,-0.3085,-0.37459481677941));
#447=CARTESIAN_POINT('',(-0.3,-0.273941446264062,-0.48746981677941));
#448=CARTESIAN_POINT('',(-0.4,-0.217039217194815,-0.570186883443984));
#449=CARTESIAN_POINT('',(-0.4,-0.161468956259754,-0.650374588962656));
#450=CARTESIAN_POINT('',(-0.4,-0.0847189562597539,-0.7));
#451=CARTESIAN_POINT('',(-0.4,0.,-0.7));
#452=CARTESIAN_POINT('',(-0.3,-0.218099669396093,-0.569196112584558));
#453=CARTESIAN_POINT('',(-0.3,-0.162257892528124,-0.650922408389705));
#454=CARTESIAN_POINT('',(-0.3,-0.085132892528124,-0.7015));
#455=CARTESIAN_POINT('',(-0.3,0.,-0.7015));
#456=CARTESIAN_POINT('',(-0.2,-0.31,-0.243));
#457=CARTESIAN_POINT('',(-0.2,-0.31,-0.369940455633507));
#458=CARTESIAN_POINT('',(-0.2,-0.275273414398247,-0.484940455633508));
#459=CARTESIAN_POINT('',(-0.1,-0.308,-0.235));
#460=CARTESIAN_POINT('',(-0.1,-0.308,-0.36325125381668));
#461=CARTESIAN_POINT('',(-0.1,-0.273497456886,-0.47943875381668));
#462=CARTESIAN_POINT('',(-0.2,-0.219160121597371,-0.568205341725131));
#463=CARTESIAN_POINT('',(-0.2,-0.163046828796494,-0.651470227816754));
#464=CARTESIAN_POINT('',(-0.2,-0.0855468287964942,-0.703));
#465=CARTESIAN_POINT('',(-0.2,0.,-0.703));
#466=CARTESIAN_POINT('',(-0.1,-0.217746185329,-0.56356344036251));
#467=CARTESIAN_POINT('',(-0.1,-0.161994913772001,-0.64768812690834));
#468=CARTESIAN_POINT('',(-0.1,-0.0849949137720006,-0.69975));
#469=CARTESIAN_POINT('',(-0.1,0.,-0.69975));
#470=CARTESIAN_POINT('',(0.,-0.306,-0.227));
#471=CARTESIAN_POINT('',(0.,-0.306,-0.356562051999852));
#472=CARTESIAN_POINT('',(0.,-0.271721499373754,-0.473937051999852));
#473=CARTESIAN_POINT('',(0.1,-0.3,-0.2205));
#474=CARTESIAN_POINT('',(0.1,-0.3,-0.348820243194741));
#475=CARTESIAN_POINT('',(0.1,-0.266393626837013,-0.465070243194741));
#476=CARTESIAN_POINT('',(0.,-0.21633224906063,-0.558921538999889));
#477=CARTESIAN_POINT('',(0.,-0.160942998747507,-0.643906025999926));
#478=CARTESIAN_POINT('',(0.,-0.0844429987475071,-0.6965));
#479=CARTESIAN_POINT('',(0.,0.,-0.6965));
#480=CARTESIAN_POINT('',(0.1,-0.21209044025552,-0.549240182396056));
#481=CARTESIAN_POINT('',(0.1,-0.157787253674027,-0.633410121597371));
#482=CARTESIAN_POINT('',(0.1,-0.0827872536740266,-0.6855));
#483=CARTESIAN_POINT('',(0.1,0.,-0.6855));
#484=CARTESIAN_POINT('',(0.2,-0.294,-0.214));
#485=CARTESIAN_POINT('',(0.2,-0.294,-0.341078434389631));
#486=CARTESIAN_POINT('',(0.2,-0.261065754300273,-0.456203434389631));
#487=CARTESIAN_POINT('',(0.3,-0.2835,-0.2065));
#488=CARTESIAN_POINT('',(0.3,-0.2835,-0.3298530079743));
#489=CARTESIAN_POINT('',(0.3,-0.251741977360978,-0.4416030079743));
#490=CARTESIAN_POINT('',(0.2,-0.20784863145041,-0.539558825792223));
#491=CARTESIAN_POINT('',(0.2,-0.154631508600546,-0.622914217194815));
#492=CARTESIAN_POINT('',(0.2,-0.0811315086005461,-0.6745));
#493=CARTESIAN_POINT('',(0.2,0.,-0.6745));
#494=CARTESIAN_POINT('',(0.3,-0.200425466041466,-0.522514755980725));
#495=CARTESIAN_POINT('',(0.3,-0.149108954721955,-0.60342650398715));
#496=CARTESIAN_POINT('',(0.3,-0.0782339547219552,-0.6535));
#497=CARTESIAN_POINT('',(0.3,0.,-0.6535));
#498=CARTESIAN_POINT('',(0.4,-0.273,-0.199));
#499=CARTESIAN_POINT('',(0.4,-0.273,-0.318627581558968));
#500=CARTESIAN_POINT('',(0.4,-0.242418200421682,-0.427002581558968));
#501=CARTESIAN_POINT('',(0.5,-0.25825,-0.188));
#502=CARTESIAN_POINT('',(0.5,-0.25825,-0.301280558777293));
#503=CARTESIAN_POINT('',(0.5,-0.229320513768862,-0.403905558777293));
#504=CARTESIAN_POINT('',(0.4,-0.193002300632523,-0.505470686169226));
#505=CARTESIAN_POINT('',(0.4,-0.143586400843364,-0.583938790779484));
#506=CARTESIAN_POINT('',(0.4,-0.0753364008433642,-0.6325));
#507=CARTESIAN_POINT('',(0.4,0.,-0.6325));
#508=CARTESIAN_POINT('',(0.5,-0.182574520653293,-0.47821041908297));
#509=CARTESIAN_POINT('',(0.5,-0.135828527537725,-0.552515279388647));
#510=CARTESIAN_POINT('',(0.5,-0.0712660275377246,-0.5985));
#511=CARTESIAN_POINT('',(0.5,0.,-0.5985));
#512=CARTESIAN_POINT('',(0.6,-0.2435,-0.177));
#513=CARTESIAN_POINT('',(0.6,-0.2435,-0.283933535995618));
#514=CARTESIAN_POINT('',(0.6,-0.216222827116042,-0.380808535995618));
#515=CARTESIAN_POINT('',(0.7,-0.2265,-0.16));
#516=CARTESIAN_POINT('',(0.7,-0.2265,-0.258792789384338));
#517=CARTESIAN_POINT('',(0.7,-0.201127188261945,-0.348292789384338));
#518=CARTESIAN_POINT('',(0.6,-0.172146740674064,-0.450950151996713));
#519=CARTESIAN_POINT('',(0.6,-0.128070654232085,-0.521091767997809));
#520=CARTESIAN_POINT('',(0.6,-0.0671956542320849,-0.5645));
#521=CARTESIAN_POINT('',(0.6,0.,-0.5645));
#522=CARTESIAN_POINT('',(0.7,-0.160128282392918,-0.413094592038254));
#523=CARTESIAN_POINT('',(0.7,-0.11912937652389,-0.477896394692169));
#524=CARTESIAN_POINT('',(0.7,-0.0625043765238901,-0.518));
#525=CARTESIAN_POINT('',(0.7,0.,-0.518));
#526=CARTESIAN_POINT('',(0.8,-0.2095,-0.143));
#527=CARTESIAN_POINT('',(0.8,-0.2095,-0.233652042773059));
#528=CARTESIAN_POINT('',(0.8,-0.186031549407848,-0.315777042773059));
#529=CARTESIAN_POINT('',(0.9,-0.1935,-0.1225));
#530=CARTESIAN_POINT('',(0.9,-0.1935,-0.204252413003101));
#531=CARTESIAN_POINT('',(0.9,-0.171823889309874,-0.278314913003101));
#532=CARTESIAN_POINT('',(0.8,-0.148109824111771,-0.375239032079794));
#533=CARTESIAN_POINT('',(0.8,-0.110188098815695,-0.43470102138653));
#534=CARTESIAN_POINT('',(0.8,-0.0578130988156952,-0.4715));
#535=CARTESIAN_POINT('',(0.8,0.,-0.4715));
#536=CARTESIAN_POINT('',(0.9,-0.13679833396481,-0.331939309752326));
#537=CARTESIAN_POINT('',(0.9,-0.101772778619747,-0.385563706501551));
#538=CARTESIAN_POINT('',(0.9,-0.0533977786197472,-0.41875));
#539=CARTESIAN_POINT('',(0.9,0.,-0.41875));
#540=CARTESIAN_POINT('',(1.,-0.1775,-0.102));
#541=CARTESIAN_POINT('',(1.,-0.1775,-0.174852783233143));
#542=CARTESIAN_POINT('',(1.,-0.1576162292119,-0.240852783233143));
#543=CARTESIAN_POINT('',(1.1,-0.165,-0.0805));
#544=CARTESIAN_POINT('',(1.1,-0.165,-0.145212036621864));
#545=CARTESIAN_POINT('',(1.1,-0.146516494760357,-0.203837036621864));
#546=CARTESIAN_POINT('',(1.,-0.125486843817849,-0.288639587424858));
#547=CARTESIAN_POINT('',(1.,-0.0933574584237991,-0.336426391616572));
#548=CARTESIAN_POINT('',(1.,-0.0489824584237991,-0.366));
#549=CARTESIAN_POINT('',(1.,0.,-0.366));
#550=CARTESIAN_POINT('',(1.1,-0.116649742140536,-0.246284027466398));
#551=CARTESIAN_POINT('',(1.1,-0.0867829895207146,-0.288731018310932));
#552=CARTESIAN_POINT('',(1.1,-0.0455329895207146,-0.315));
#553=CARTESIAN_POINT('',(1.1,0.,-0.315));
#554=CARTESIAN_POINT('',(1.2,-0.1525,-0.059));
#555=CARTESIAN_POINT('',(1.2,-0.1525,-0.115571290010585));
#556=CARTESIAN_POINT('',(1.2,-0.135416760308815,-0.166821290010585));
#557=CARTESIAN_POINT('',(1.3,-0.145,-0.0405));
#558=CARTESIAN_POINT('',(1.3,-0.145,-0.0906552778508478));
#559=CARTESIAN_POINT('',(1.3,-0.12875691963789,-0.136092777850848));
#560=CARTESIAN_POINT('',(1.4,-0.1375,-0.022));
#561=CARTESIAN_POINT('',(1.4,-0.1375,-0.0657392656911107));
#562=CARTESIAN_POINT('',(1.4,-0.122097078966964,-0.105364265691111));
#563=CARTESIAN_POINT('',(1.2,-0.107812640463223,-0.203928467507939));
#564=CARTESIAN_POINT('',(1.2,-0.0802085206176302,-0.241035645005292));
#565=CARTESIAN_POINT('',(1.2,-0.0420835206176302,-0.264));
#566=CARTESIAN_POINT('',(1.2,0.,-0.264));
#567=CARTESIAN_POINT('',(1.3,-0.102510379456835,-0.168991458388136));
#568=CARTESIAN_POINT('',(1.3,-0.0762638392757795,-0.201890138925424));
#569=CARTESIAN_POINT('',(1.3,-0.0400138392757795,-0.22225));
#570=CARTESIAN_POINT('',(1.3,0.,-0.22225));
#571=CARTESIAN_POINT('',(1.4,-0.0972081184504466,-0.134054449268333));
#572=CARTESIAN_POINT('',(1.4,-0.0723191579339289,-0.162744632845555));
#573=CARTESIAN_POINT('',(1.4,-0.0379441579339289,-0.1805));
#574=CARTESIAN_POINT('',(1.4,0.,-0.1805));
#575=B_SPLINE_SURFACE_WITH_KNOTS('Surf_HNTVYIKYFQ, Fuselage, 0, 2',2,3,((#576, #577, #578, #582, #583, #584, #585),(#579, #580, #581, #586, #587, #588, #589),(#590, #591, #592, #596, #597, #598, #599),(#593, #594, #595, #600, #601, #602, #603),(#604, #605, #606, #610, #611, #612, #613),(#607, #608, #609, #614, #615, #616, #617),(#618, #619, #620, #624, #625, #626, #627),(#621, #622, #623, #628, #629, #630, #631),(#632, #633, #634, #638, #639, #640, #641),(#635, #636, #637, #642, #643, #644, #645),(#646, #647, #648, #652, #653, #654, #655),(#649, #650, #651, #656, #657, #658, #659),(#660, #661, #662, #666, #667, #668, #669),(#663, #664, #665, #670, #671, #672, #673),(#674, #675, #676, #680, #681, #682, #683),(#677, #678, #679, #684, #685, #686, #687),(#688, #689, #690, #694, #695, #696, #697),(#691, #692, #693, #698, #699, #700, #701),(#702, #703, #704, #708, #709, #710, #711),(#705, #706, #707, #712, #713, #714, #715),(#716, #717, #718, #722, #723, #724, #725),(#719, #720, #721, #726, #727, #728, #729),(#730, #731, #732, #736, #737, #738, #739),(#733, #734, #735, #740, #741, #742, #743),(#744, #745, #746, #750, #751, #752, #753),(#747, #748, #749, #754, #755, #756, #757),(#758, #759, #760, #764, #765, #766, #767),(#761, #762, #763, #768, #769, #770, #771),(#772, #773, #774, #778, #779, #780, #781),(#775, #776, #777, #782, #783, #784, #785),(#786, #787, #788, #792, #793, #794, #795),(#789, #790, #791, #796, #797, #798, #799),(#800, #801, #802, #806, #807, #808, #809),(#803, #804, #805, #810, #811, #812, #813),(#814, #815, #816, #823, #824, #825, #826),(#817, #818, #819, #827, #828, #829, #830),(#820, #821, #822, #831, #832, #833, #834)),.UNSPECIFIED.,.F.,.F.,.F.,(3,2,2,2,2,2,2,2,2,2,2,2,2,2,2,2,2,2,3),(4,3,4),(0.,1.,2.,3.,4.,5.,6.,7.,8.,9.,10.,11.,12.,13.,14.,15.,16.,17.,18.),(0.,1.,2.),.PIECEWISE_BEZIER_KNOTS.);
#576=CARTESIAN_POINT('',(-1.7,0.,-0.402));
#577=CARTESIAN_POINT('',(-1.7,0.,-0.402));
#578=CARTESIAN_POINT('',(-1.7,0.,-0.402));
#579=CARTESIAN_POINT('',(-1.7,-6.72205346941013E-18,-0.371063068187036));
#580=CARTESIAN_POINT('',(-1.7,-0.00773423295324107,-0.371063068187036));
#581=CARTESIAN_POINT('',(-1.7,-0.0154684659064821,-0.374930184663656));
#582=CARTESIAN_POINT('',(-1.7,0.,-0.402));
#583=CARTESIAN_POINT('',(-1.7,0.,-0.402));
#584=CARTESIAN_POINT('',(-1.7,0.,-0.402));
#585=CARTESIAN_POINT('',(-1.7,0.,-0.402));
#586=CARTESIAN_POINT('',(-1.7,-0.0212691406214129,-0.380730859378587));
#587=CARTESIAN_POINT('',(-1.7,-0.0270698153363437,-0.386531534093518));
#588=CARTESIAN_POINT('',(-1.7,-0.0309369318129643,-0.394265767046759));
#589=CARTESIAN_POINT('',(-1.7,-0.0309369318129643,-0.402));
#590=CARTESIAN_POINT('',(-1.65,0.,-0.328));
#591=CARTESIAN_POINT('',(-1.65,-0.0176612807837923,-0.328));
#592=CARTESIAN_POINT('',(-1.65,-0.0336612807837923,-0.33528138085198));
#593=CARTESIAN_POINT('',(-1.625,0.,-0.30825));
#594=CARTESIAN_POINT('',(-1.625,-0.0221455903578021,-0.30825));
#595=CARTESIAN_POINT('',(-1.625,-0.0422080903578021,-0.317407736686914));
#596=CARTESIAN_POINT('',(-1.65,-0.0452459605878443,-0.347047071277971));
#597=CARTESIAN_POINT('',(-1.65,-0.0568306403918962,-0.358812761703961));
#598=CARTESIAN_POINT('',(-1.65,-0.064,-0.375062761703961));
#599=CARTESIAN_POINT('',(-1.65,-0.064,-0.393));
#600=CARTESIAN_POINT('',(-1.625,-0.0567341927683516,-0.332205355030371));
#601=CARTESIAN_POINT('',(-1.625,-0.0712602951789011,-0.347002973373828));
#602=CARTESIAN_POINT('',(-1.625,-0.08025,-0.367440473373828));
#603=CARTESIAN_POINT('',(-1.625,-0.08025,-0.39));
#604=CARTESIAN_POINT('',(-1.6,0.,-0.2885));
#605=CARTESIAN_POINT('',(-1.6,-0.0266298999318119,-0.2885));
#606=CARTESIAN_POINT('',(-1.6,-0.0507548999318119,-0.299534092521847));
#607=CARTESIAN_POINT('',(-1.55,0.,-0.257));
#608=CARTESIAN_POINT('',(-1.55,-0.0331838908476723,-0.257));
#609=CARTESIAN_POINT('',(-1.55,-0.0632463908476723,-0.271002655484578));
#610=CARTESIAN_POINT('',(-1.6,-0.0682224249488589,-0.317363638782771));
#611=CARTESIAN_POINT('',(-1.6,-0.0856899499659059,-0.335193185043695));
#612=CARTESIAN_POINT('',(-1.6,-0.0965,-0.359818185043695));
#613=CARTESIAN_POINT('',(-1.6,-0.0965,-0.387));
#614=CARTESIAN_POINT('',(-1.55,-0.0850129181357542,-0.293628983226867));
#615=CARTESIAN_POINT('',(-1.55,-0.106779445423836,-0.316255310969156));
#616=CARTESIAN_POINT('',(-1.55,-0.12025,-0.347505310969156));
#617=CARTESIAN_POINT('',(-1.55,-0.12025,-0.382));
#618=CARTESIAN_POINT('',(-1.5,0.,-0.2255));
#619=CARTESIAN_POINT('',(-1.5,-0.0397378817635328,-0.2255));
#620=CARTESIAN_POINT('',(-1.5,-0.0757378817635328,-0.242471218447308));
#621=CARTESIAN_POINT('',(-1.45,0.,-0.1985));
#622=CARTESIAN_POINT('',(-1.45,-0.0444981488497893,-0.1985));
#623=CARTESIAN_POINT('',(-1.45,-0.0848106488497893,-0.217991696434532));
#624=CARTESIAN_POINT('',(-1.5,-0.10180341132265,-0.269894327670962));
#625=CARTESIAN_POINT('',(-1.5,-0.127868940881766,-0.297317436894617));
#626=CARTESIAN_POINT('',(-1.5,-0.144,-0.335192436894617));
#627=CARTESIAN_POINT('',(-1.5,-0.144,-0.377));
#628=CARTESIAN_POINT('',(-1.45,-0.113998611637342,-0.249487544651798));
#629=CARTESIAN_POINT('',(-1.45,-0.143186574424895,-0.280983392869065));
#630=CARTESIAN_POINT('',(-1.45,-0.16125,-0.324483392869065));
#631=CARTESIAN_POINT('',(-1.45,-0.16125,-0.3725));
#632=CARTESIAN_POINT('',(-1.4,0.,-0.1715));
#633=CARTESIAN_POINT('',(-1.4,-0.0492584159360458,-0.1715));
#634=CARTESIAN_POINT('',(-1.4,-0.0938834159360458,-0.193512174421756));
#635=CARTESIAN_POINT('',(-1.3,0.,-0.12375));
#636=CARTESIAN_POINT('',(-1.3,-0.0560193749860913,-0.12375));
#637=CARTESIAN_POINT('',(-1.3,-0.106769374986091,-0.149878955134222));
#638=CARTESIAN_POINT('',(-1.4,-0.126193811952034,-0.229080761632634));
#639=CARTESIAN_POINT('',(-1.4,-0.158504207968023,-0.264649348843513));
#640=CARTESIAN_POINT('',(-1.4,-0.1785,-0.313774348843513));
#641=CARTESIAN_POINT('',(-1.4,-0.1785,-0.368));
#642=CARTESIAN_POINT('',(-1.3,-0.143514531239568,-0.192099682701333));
#643=CARTESIAN_POINT('',(-1.3,-0.180259687493046,-0.234320410268444));
#644=CARTESIAN_POINT('',(-1.3,-0.203,-0.292632910268444));
#645=CARTESIAN_POINT('',(-1.3,-0.203,-0.357));
#646=CARTESIAN_POINT('',(-1.2,0.,-0.076));
#647=CARTESIAN_POINT('',(-1.2,-0.0627803340361368,-0.076));
#648=CARTESIAN_POINT('',(-1.2,-0.119655334036137,-0.106245735846688));
#649=CARTESIAN_POINT('',(-1.1,0.,-0.03425));
#650=CARTESIAN_POINT('',(-1.1,-0.0672646436101466,-0.03425));
#651=CARTESIAN_POINT('',(-1.1,-0.128202143610147,-0.0677723572300792));
#652=CARTESIAN_POINT('',(-1.2,-0.160835250527103,-0.155118603770032));
#653=CARTESIAN_POINT('',(-1.2,-0.202015167018068,-0.203991471693376));
#654=CARTESIAN_POINT('',(-1.2,-0.2275,-0.271491471693376));
#655=CARTESIAN_POINT('',(-1.2,-0.2275,-0.346));
#656=CARTESIAN_POINT('',(-1.1,-0.17232348270761,-0.121939785845119));
#657=CARTESIAN_POINT('',(-1.1,-0.216444821805073,-0.176107214460158));
#658=CARTESIAN_POINT('',(-1.1,-0.24375,-0.250919714460158));
#659=CARTESIAN_POINT('',(-1.1,-0.24375,-0.3335));
#660=CARTESIAN_POINT('',(-1.,0.,0.00750000000000001));
#661=CARTESIAN_POINT('',(-1.,-0.0717489531841564,0.00750000000000001));
#662=CARTESIAN_POINT('',(-1.,-0.136748953184156,-0.0292989786134704));
#663=CARTESIAN_POINT('',(-0.9,0.,0.0425));
#664=CARTESIAN_POINT('',(-0.9,-0.0749224645749941,0.0425));
#665=CARTESIAN_POINT('',(-0.9,-0.142797464574994,0.00306852215542897));
#666=CARTESIAN_POINT('',(-1.,-0.183811714888117,-0.0887609679202056));
#667=CARTESIAN_POINT('',(-1.,-0.230874476592078,-0.148222957226941));
#668=CARTESIAN_POINT('',(-1.,-0.26,-0.230347957226941));
#669=CARTESIAN_POINT('',(-1.,-0.26,-0.321));
#670=CARTESIAN_POINT('',(-0.9,-0.191941848431246,-0.0606472167668566));
#671=CARTESIAN_POINT('',(-0.9,-0.241086232287497,-0.124362955689142));
#672=CARTESIAN_POINT('',(-0.9,-0.2715,-0.212362955689142));
#673=CARTESIAN_POINT('',(-0.9,-0.2715,-0.3095));
#674=CARTESIAN_POINT('',(-0.8,0.,0.0775));
#675=CARTESIAN_POINT('',(-0.8,-0.0780959759658318,0.0775));
#676=CARTESIAN_POINT('',(-0.8,-0.148845975965832,0.0354360229243283));
#677=CARTESIAN_POINT('',(-0.7,0.,0.1075));
#678=CARTESIAN_POINT('',(-0.7,-0.0801656573076824,0.1075));
#679=CARTESIAN_POINT('',(-0.7,-0.152790657307682,0.0633076192906725));
#680=CARTESIAN_POINT('',(-0.8,-0.200071981974374,-0.0325334656135075));
#681=CARTESIAN_POINT('',(-0.8,-0.251297987982916,-0.100502954151343));
#682=CARTESIAN_POINT('',(-0.8,-0.283,-0.194377954151343));
#683=CARTESIAN_POINT('',(-0.8,-0.283,-0.298));
#684=CARTESIAN_POINT('',(-0.7,-0.205374242980762,-0.00810107106399124));
#685=CARTESIAN_POINT('',(-0.7,-0.257957828653841,-0.079509761418655));
#686=CARTESIAN_POINT('',(-0.7,-0.2905,-0.178134761418655));
#687=CARTESIAN_POINT('',(-0.7,-0.2905,-0.287));
#688=CARTESIAN_POINT('',(-0.6,0.,0.1375));
#689=CARTESIAN_POINT('',(-0.6,-0.0822353386495331,0.1375));
#690=CARTESIAN_POINT('',(-0.6,-0.156735338649533,0.0911792156570167));
#691=CARTESIAN_POINT('',(-0.5,0.,0.16175));
#692=CARTESIAN_POINT('',(-0.5,-0.0834771474546435,0.16175));
#693=CARTESIAN_POINT('',(-0.5,-0.159102147454643,0.113776902309837));
#694=CARTESIAN_POINT('',(-0.6,-0.21067650398715,0.016331323485525));
#695=CARTESIAN_POINT('',(-0.6,-0.264617669324767,-0.0585165686859667));
#696=CARTESIAN_POINT('',(-0.6,-0.298,-0.161891568685967));
#697=CARTESIAN_POINT('',(-0.6,-0.298,-0.276));
#698=CARTESIAN_POINT('',(-0.5,-0.213857860590983,0.0362591034647547));
#699=CARTESIAN_POINT('',(-0.5,-0.268613573727322,-0.041258695380327));
#700=CARTESIAN_POINT('',(-0.5,-0.3025,-0.148321195380327));
#701=CARTESIAN_POINT('',(-0.5,-0.3025,-0.2665));
#702=CARTESIAN_POINT('',(-0.4,0.,0.186));
#703=CARTESIAN_POINT('',(-0.4,-0.0847189562597539,0.186));
#704=CARTESIAN_POINT('',(-0.4,-0.161468956259754,0.136374588962656));
#705=CARTESIAN_POINT('',(-0.3,0.,0.2015));
#706=CARTESIAN_POINT('',(-0.3,-0.085132892528124,0.2015));
#707=CARTESIAN_POINT('',(-0.3,-0.162257892528124,0.150922408389705));
#708=CARTESIAN_POINT('',(-0.4,-0.217039217194815,0.0561868834439845));
#709=CARTESIAN_POINT('',(-0.4,-0.272609478129877,-0.0240008220746873));
#710=CARTESIAN_POINT('',(-0.4,-0.307,-0.134750822074687));
#711=CARTESIAN_POINT('',(-0.4,-0.307,-0.257));
#712=CARTESIAN_POINT('',(-0.3,-0.218099669396093,0.0691961125845576));
#713=CARTESIAN_POINT('',(-0.3,-0.273941446264062,-0.0125301832205899));
#714=CARTESIAN_POINT('',(-0.3,-0.3085,-0.12540518322059));
#715=CARTESIAN_POINT('',(-0.3,-0.3085,-0.25));
#716=CARTESIAN_POINT('',(-0.2,0.,0.217));
#717=CARTESIAN_POINT('',(-0.2,-0.0855468287964942,0.217));
#718=CARTESIAN_POINT('',(-0.2,-0.163046828796494,0.165470227816754));
#719=CARTESIAN_POINT('',(-0.1,0.,0.22975));
#720=CARTESIAN_POINT('',(-0.1,-0.0849949137720006,0.22975));
#721=CARTESIAN_POINT('',(-0.1,-0.161994913772001,0.17768812690834));
#722=CARTESIAN_POINT('',(-0.2,-0.219160121597371,0.0822053417251307));
#723=CARTESIAN_POINT('',(-0.2,-0.275273414398247,-0.00105954436649247));
#724=CARTESIAN_POINT('',(-0.2,-0.31,-0.116059544366493));
#725=CARTESIAN_POINT('',(-0.2,-0.31,-0.243));
#726=CARTESIAN_POINT('',(-0.1,-0.217746185329,0.0935634403625097));
#727=CARTESIAN_POINT('',(-0.1,-0.273497456886,0.00943875381667955));
#728=CARTESIAN_POINT('',(-0.1,-0.308,-0.10674874618332));
#729=CARTESIAN_POINT('',(-0.1,-0.308,-0.235));
#730=CARTESIAN_POINT('',(0.,0.,0.2425));
#731=CARTESIAN_POINT('',(0.,-0.0844429987475071,0.2425));
#732=CARTESIAN_POINT('',(0.,-0.160942998747507,0.189906025999926));
#733=CARTESIAN_POINT('',(0.1,0.,0.2445));
#734=CARTESIAN_POINT('',(0.1,-0.0827872536740266,0.2445));
#735=CARTESIAN_POINT('',(0.1,-0.157787253674027,0.192410121597371));
#736=CARTESIAN_POINT('',(0.,-0.21633224906063,0.104921538999889));
#737=CARTESIAN_POINT('',(0.,-0.271721499373754,0.0199370519998516));
#738=CARTESIAN_POINT('',(0.,-0.306,-0.0974379480001484));
#739=CARTESIAN_POINT('',(0.,-0.306,-0.227));
#740=CARTESIAN_POINT('',(0.1,-0.21209044025552,0.108240182396056));
#741=CARTESIAN_POINT('',(0.1,-0.266393626837013,0.0240702431947412));
#742=CARTESIAN_POINT('',(0.1,-0.3,-0.0921797568052588));
#743=CARTESIAN_POINT('',(0.1,-0.3,-0.2205));
#744=CARTESIAN_POINT('',(0.2,0.,0.2465));
#745=CARTESIAN_POINT('',(0.2,-0.0811315086005461,0.2465));
#746=CARTESIAN_POINT('',(0.2,-0.154631508600546,0.194914217194815));
#747=CARTESIAN_POINT('',(0.3,0.,0.2405));
#748=CARTESIAN_POINT('',(0.3,-0.0782339547219552,0.2405));
#749=CARTESIAN_POINT('',(0.3,-0.149108954721955,0.19042650398715));
#750=CARTESIAN_POINT('',(0.2,-0.20784863145041,0.111558825792223));
#751=CARTESIAN_POINT('',(0.2,-0.261065754300273,0.0282034343896309));
#752=CARTESIAN_POINT('',(0.2,-0.294,-0.0869215656103692));
#753=CARTESIAN_POINT('',(0.2,-0.294,-0.214));
#754=CARTESIAN_POINT('',(0.3,-0.200425466041466,0.109514755980725));
#755=CARTESIAN_POINT('',(0.3,-0.251741977360978,0.0286030079742997));
#756=CARTESIAN_POINT('',(0.3,-0.2835,-0.0831469920257004));
#757=CARTESIAN_POINT('',(0.3,-0.2835,-0.2065));
#758=CARTESIAN_POINT('',(0.4,0.,0.2345));
#759=CARTESIAN_POINT('',(0.4,-0.0753364008433642,0.2345));
#760=CARTESIAN_POINT('',(0.4,-0.143586400843364,0.185938790779484));
#761=CARTESIAN_POINT('',(0.5,0.,0.2225));
#762=CARTESIAN_POINT('',(0.5,-0.0712660275377246,0.2225));
#763=CARTESIAN_POINT('',(0.5,-0.135828527537725,0.176515279388647));
#764=CARTESIAN_POINT('',(0.4,-0.193002300632523,0.107470686169226));
#765=CARTESIAN_POINT('',(0.4,-0.242418200421682,0.0290025815589685));
#766=CARTESIAN_POINT('',(0.4,-0.273,-0.0793724184410316));
#767=CARTESIAN_POINT('',(0.4,-0.273,-0.199));
#768=CARTESIAN_POINT('',(0.5,-0.182574520653293,0.10221041908297));
#769=CARTESIAN_POINT('',(0.5,-0.229320513768862,0.0279055587772931));
#770=CARTESIAN_POINT('',(0.5,-0.25825,-0.0747194412227069));
#771=CARTESIAN_POINT('',(0.5,-0.25825,-0.188));
#772=CARTESIAN_POINT('',(0.6,0.,0.2105));
#773=CARTESIAN_POINT('',(0.6,-0.0671956542320849,0.2105));
#774=CARTESIAN_POINT('',(0.6,-0.128070654232085,0.167091767997809));
#775=CARTESIAN_POINT('',(0.7,0.,0.198));
#776=CARTESIAN_POINT('',(0.7,-0.0625043765238901,0.198));
#777=CARTESIAN_POINT('',(0.7,-0.11912937652389,0.157896394692169));
#778=CARTESIAN_POINT('',(0.6,-0.172146740674064,0.0969501519967133));
#779=CARTESIAN_POINT('',(0.6,-0.216222827116042,0.0268085359956177));
#780=CARTESIAN_POINT('',(0.6,-0.2435,-0.0700664640043823));
#781=CARTESIAN_POINT('',(0.6,-0.2435,-0.177));
#782=CARTESIAN_POINT('',(0.7,-0.160128282392918,0.0930945920382538));
#783=CARTESIAN_POINT('',(0.7,-0.201127188261945,0.0282927893843384));
#784=CARTESIAN_POINT('',(0.7,-0.2265,-0.0612072106156616));
#785=CARTESIAN_POINT('',(0.7,-0.2265,-0.16));
#786=CARTESIAN_POINT('',(0.8,0.,0.1855));
#787=CARTESIAN_POINT('',(0.8,-0.0578130988156953,0.1855));
#788=CARTESIAN_POINT('',(0.8,-0.110188098815695,0.14870102138653));
#789=CARTESIAN_POINT('',(0.9,0.,0.17375));
#790=CARTESIAN_POINT('',(0.9,-0.0533977786197472,0.17375));
#791=CARTESIAN_POINT('',(0.9,-0.101772778619747,0.140563706501551));
#792=CARTESIAN_POINT('',(0.8,-0.148109824111771,0.0892390320797944));
#793=CARTESIAN_POINT('',(0.8,-0.186031549407848,0.0297770427730592));
#794=CARTESIAN_POINT('',(0.8,-0.2095,-0.0523479572269409));
#795=CARTESIAN_POINT('',(0.8,-0.2095,-0.143));
#796=CARTESIAN_POINT('',(0.9,-0.13679833396481,0.086939309752326));
#797=CARTESIAN_POINT('',(0.9,-0.171823889309874,0.0333149130031013));
#798=CARTESIAN_POINT('',(0.9,-0.1935,-0.0407475869968987));
#799=CARTESIAN_POINT('',(0.9,-0.1935,-0.1225));
#800=CARTESIAN_POINT('',(1.,0.,0.162));
#801=CARTESIAN_POINT('',(1.,-0.0489824584237991,0.162));
#802=CARTESIAN_POINT('',(1.,-0.0933574584237991,0.132426391616572));
#803=CARTESIAN_POINT('',(1.1,0.,0.154));
#804=CARTESIAN_POINT('',(1.1,-0.0455329895207146,0.154));
#805=CARTESIAN_POINT('',(1.1,-0.0867829895207146,0.127731018310932));
#806=CARTESIAN_POINT('',(1.,-0.125486843817849,0.0846395874248576));
#807=CARTESIAN_POINT('',(1.,-0.1576162292119,0.0368527832331434));
#808=CARTESIAN_POINT('',(1.,-0.1775,-0.0291472167668566));
#809=CARTESIAN_POINT('',(1.,-0.1775,-0.102));
#810=CARTESIAN_POINT('',(1.1,-0.116649742140536,0.0852840274663981));
#811=CARTESIAN_POINT('',(1.1,-0.146516494760357,0.0428370366218641));
#812=CARTESIAN_POINT('',(1.1,-0.165,-0.0157879633781359));
#813=CARTESIAN_POINT('',(1.1,-0.165,-0.0805));
#814=CARTESIAN_POINT('',(1.2,0.,0.146));
#815=CARTESIAN_POINT('',(1.2,-0.0420835206176302,0.146));
#816=CARTESIAN_POINT('',(1.2,-0.0802085206176302,0.123035645005292));
#817=CARTESIAN_POINT('',(1.3,0.,0.14125));
#818=CARTESIAN_POINT('',(1.3,-0.0400138392757795,0.14125));
#819=CARTESIAN_POINT('',(1.3,-0.0762638392757795,0.120890138925424));
#820=CARTESIAN_POINT('',(1.4,0.,0.1365));
#821=CARTESIAN_POINT('',(1.4,-0.0379441579339289,0.1365));
#822=CARTESIAN_POINT('',(1.4,-0.0723191579339289,0.118744632845555));
#823=CARTESIAN_POINT('',(1.2,-0.107812640463223,0.0859284675079386));
#824=CARTESIAN_POINT('',(1.2,-0.135416760308815,0.0488212900105848));
#825=CARTESIAN_POINT('',(1.2,-0.1525,-0.00242870998941516));
#826=CARTESIAN_POINT('',(1.2,-0.1525,-0.059));
#827=CARTESIAN_POINT('',(1.3,-0.102510379456835,0.0879914583881358));
#828=CARTESIAN_POINT('',(1.3,-0.12875691963789,0.0550927778508478));
#829=CARTESIAN_POINT('',(1.3,-0.145,0.00965527785084778));
#830=CARTESIAN_POINT('',(1.3,-0.145,-0.0405));
#831=CARTESIAN_POINT('',(1.4,-0.0972081184504466,0.090054449268333));
#832=CARTESIAN_POINT('',(1.4,-0.122097078966964,0.0613642656911107));
#833=CARTESIAN_POINT('',(1.4,-0.1375,0.0217392656911107));
#834=CARTESIAN_POINT('',(1.4,-0.1375,-0.022));
#835=B_SPLINE_SURFACE_WITH_KNOTS('Surf_HNTVYIKYFQ, Fuselage, 0, 3',2,3,((#836, #837, #838, #842, #843, #844, #845),(#839, #840, #841, #846, #847, #848, #849),(#850, #851, #852, #856, #857, #858, #859),(#853, #854, #855, #860, #861, #862, #863),(#864, #865, #866, #870, #871, #872, #873),(#867, #868, #869, #874, #875, #876, #877),(#878, #879, #880, #884, #885, #886, #887),(#881, #882, #883, #888, #889, #890, #891),(#892, #893, #894, #898, #899, #900, #901),(#895, #896, #897, #902, #903, #904, #905),(#906, #907, #908, #912, #913, #914, #915),(#909, #910, #911, #916, #917, #918, #919),(#920, #921, #922, #926, #927, #928, #929),(#923, #924, #925, #930, #931, #932, #933),(#934, #935, #936, #940, #941, #942, #943),(#937, #938, #939, #944, #945, #946, #947),(#948, #949, #950, #954, #955, #956, #957),(#951, #952, #953, #958, #959, #960, #961),(#962, #963, #964, #968, #969, #970, #971),(#965, #966, #967, #972, #973, #974, #975),(#976, #977, #978, #982, #983, #984, #985),(#979, #980, #981, #986, #987, #988, #989),(#990, #991, #992, #996, #997, #998, #999),(#993, #994, #995, #1000, #1001, #1002, #1003),(#1004, #1005, #1006, #1010, #1011, #1012, #1013),(#1007, #1008, #1009, #1014, #1015, #1016, #1017),(#1018, #1019, #1020, #1024, #1025, #1026, #1027),(#1021, #1022, #1023, #1028, #1029, #1030, #1031),(#1032, #1033, #1034, #1038, #1039, #1040, #1041),(#1035, #1036, #1037, #1042, #1043, #1044, #1045),(#1046, #1047, #1048, #1052, #1053, #1054, #1055),(#1049, #1050, #1051, #1056, #1057, #1058, #1059),(#1060, #1061, #1062, #1066, #1067, #1068, #1069),(#1063, #1064, #1065, #1070, #1071, #1072, #1073),(#1074, #1075, #1076, #1083, #1084, #1085, #1086),(#1077, #1078, #1079, #1087, #1088, #1089, #1090),(#1080, #1081, #1082, #1091, #1092, #1093, #1094)),.UNSPECIFIED.,.F.,.F.,.F.,(3,2,2,2,2,2,2,2,2,2,2,2,2,2,2,2,2,2,3),(4,3,4),(0.,1.,2.,3.,4.,5.,6.,7.,8.,9.,10.,11.,12.,13.,14.,15.,16.,17.,18.),(0.,1.,2.),.PIECEWISE_BEZIER_KNOTS.);
#836=CARTESIAN_POINT('',(-1.7,0.,-0.402));
#837=CARTESIAN_POINT('',(-1.7,0.,-0.402));
#838=CARTESIAN_POINT('',(-1.7,0.,-0.402));
#839=CARTESIAN_POINT('',(-1.7,0.0309369318129643,-0.402));
#840=CARTESIAN_POINT('',(-1.7,0.0309369318129643,-0.394265767046759));
#841=CARTESIAN_POINT('',(-1.7,0.0270698153363437,-0.386531534093518));
#842=CARTESIAN_POINT('',(-1.7,0.,-0.402));
#843=CARTESIAN_POINT('',(-1.7,0.,-0.402));
#844=CARTESIAN_POINT('',(-1.7,0.,-0.402));
#845=CARTESIAN_POINT('',(-1.7,0.,-0.402));
#846=CARTESIAN_POINT('',(-1.7,0.0212691406214129,-0.380730859378587));
#847=CARTESIAN_POINT('',(-1.7,0.0154684659064821,-0.374930184663656));
#848=CARTESIAN_POINT('',(-1.7,0.00773423295324106,-0.371063068187036));
#849=CARTESIAN_POINT('',(-1.7,-6.72205346941013E-18,-0.371063068187036));
#850=CARTESIAN_POINT('',(-1.65,0.064,-0.393));
#851=CARTESIAN_POINT('',(-1.65,0.064,-0.375062761703961));
#852=CARTESIAN_POINT('',(-1.65,0.0568306403918962,-0.358812761703961));
#853=CARTESIAN_POINT('',(-1.625,0.08025,-0.39));
#854=CARTESIAN_POINT('',(-1.625,0.08025,-0.367440473373828));
#855=CARTESIAN_POINT('',(-1.625,0.071260295178901,-0.347002973373828));
#856=CARTESIAN_POINT('',(-1.65,0.0452459605878442,-0.347047071277971));
#857=CARTESIAN_POINT('',(-1.65,0.0336612807837923,-0.33528138085198));
#858=CARTESIAN_POINT('',(-1.65,0.0176612807837923,-0.328));
#859=CARTESIAN_POINT('',(-1.65,0.,-0.328));
#860=CARTESIAN_POINT('',(-1.625,0.0567341927683516,-0.332205355030371));
#861=CARTESIAN_POINT('',(-1.625,0.0422080903578021,-0.317407736686914));
#862=CARTESIAN_POINT('',(-1.625,0.0221455903578021,-0.30825));
#863=CARTESIAN_POINT('',(-1.625,0.,-0.30825));
#864=CARTESIAN_POINT('',(-1.6,0.0965,-0.387));
#865=CARTESIAN_POINT('',(-1.6,0.0965,-0.359818185043695));
#866=CARTESIAN_POINT('',(-1.6,0.0856899499659059,-0.335193185043695));
#867=CARTESIAN_POINT('',(-1.55,0.12025,-0.382));
#868=CARTESIAN_POINT('',(-1.55,0.12025,-0.347505310969156));
#869=CARTESIAN_POINT('',(-1.55,0.106779445423836,-0.316255310969156));
#870=CARTESIAN_POINT('',(-1.6,0.0682224249488589,-0.317363638782771));
#871=CARTESIAN_POINT('',(-1.6,0.0507548999318119,-0.299534092521847));
#872=CARTESIAN_POINT('',(-1.6,0.0266298999318119,-0.2885));
#873=CARTESIAN_POINT('',(-1.6,0.,-0.2885));
#874=CARTESIAN_POINT('',(-1.55,0.0850129181357542,-0.293628983226867));
#875=CARTESIAN_POINT('',(-1.55,0.0632463908476723,-0.271002655484578));
#876=CARTESIAN_POINT('',(-1.55,0.0331838908476723,-0.257));
#877=CARTESIAN_POINT('',(-1.55,0.,-0.257));
#878=CARTESIAN_POINT('',(-1.5,0.144,-0.377));
#879=CARTESIAN_POINT('',(-1.5,0.144,-0.335192436894617));
#880=CARTESIAN_POINT('',(-1.5,0.127868940881766,-0.297317436894617));
#881=CARTESIAN_POINT('',(-1.45,0.16125,-0.3725));
#882=CARTESIAN_POINT('',(-1.45,0.16125,-0.324483392869065));
#883=CARTESIAN_POINT('',(-1.45,0.143186574424895,-0.280983392869065));
#884=CARTESIAN_POINT('',(-1.5,0.10180341132265,-0.269894327670962));
#885=CARTESIAN_POINT('',(-1.5,0.0757378817635328,-0.242471218447308));
#886=CARTESIAN_POINT('',(-1.5,0.0397378817635328,-0.2255));
#887=CARTESIAN_POINT('',(-1.5,0.,-0.2255));
#888=CARTESIAN_POINT('',(-1.45,0.113998611637342,-0.249487544651798));
#889=CARTESIAN_POINT('',(-1.45,0.0848106488497893,-0.217991696434532));
#890=CARTESIAN_POINT('',(-1.45,0.0444981488497893,-0.1985));
#891=CARTESIAN_POINT('',(-1.45,0.,-0.1985));
#892=CARTESIAN_POINT('',(-1.4,0.1785,-0.368));
#893=CARTESIAN_POINT('',(-1.4,0.1785,-0.313774348843513));
#894=CARTESIAN_POINT('',(-1.4,0.158504207968023,-0.264649348843513));
#895=CARTESIAN_POINT('',(-1.3,0.203,-0.357));
#896=CARTESIAN_POINT('',(-1.3,0.203,-0.292632910268444));
#897=CARTESIAN_POINT('',(-1.3,0.180259687493046,-0.234320410268444));
#898=CARTESIAN_POINT('',(-1.4,0.126193811952034,-0.229080761632634));
#899=CARTESIAN_POINT('',(-1.4,0.0938834159360458,-0.193512174421756));
#900=CARTESIAN_POINT('',(-1.4,0.0492584159360458,-0.1715));
#901=CARTESIAN_POINT('',(-1.4,0.,-0.1715));
#902=CARTESIAN_POINT('',(-1.3,0.143514531239569,-0.192099682701333));
#903=CARTESIAN_POINT('',(-1.3,0.106769374986091,-0.149878955134222));
#904=CARTESIAN_POINT('',(-1.3,0.0560193749860913,-0.12375));
#905=CARTESIAN_POINT('',(-1.3,0.,-0.12375));
#906=CARTESIAN_POINT('',(-1.2,0.2275,-0.346));
#907=CARTESIAN_POINT('',(-1.2,0.2275,-0.271491471693376));
#908=CARTESIAN_POINT('',(-1.2,0.202015167018068,-0.203991471693376));
#909=CARTESIAN_POINT('',(-1.1,0.24375,-0.3335));
#910=CARTESIAN_POINT('',(-1.1,0.24375,-0.250919714460158));
#911=CARTESIAN_POINT('',(-1.1,0.216444821805073,-0.176107214460158));
#912=CARTESIAN_POINT('',(-1.2,0.160835250527103,-0.155118603770032));
#913=CARTESIAN_POINT('',(-1.2,0.119655334036137,-0.106245735846688));
#914=CARTESIAN_POINT('',(-1.2,0.0627803340361368,-0.076));
#915=CARTESIAN_POINT('',(-1.2,0.,-0.076));
#916=CARTESIAN_POINT('',(-1.1,0.17232348270761,-0.121939785845119));
#917=CARTESIAN_POINT('',(-1.1,0.128202143610147,-0.0677723572300792));
#918=CARTESIAN_POINT('',(-1.1,0.0672646436101466,-0.03425));
#919=CARTESIAN_POINT('',(-1.1,0.,-0.03425));
#920=CARTESIAN_POINT('',(-1.,0.26,-0.321));
#921=CARTESIAN_POINT('',(-1.,0.26,-0.230347957226941));
#922=CARTESIAN_POINT('',(-1.,0.230874476592078,-0.148222957226941));
#923=CARTESIAN_POINT('',(-0.9,0.2715,-0.3095));
#924=CARTESIAN_POINT('',(-0.9,0.2715,-0.212362955689142));
#925=CARTESIAN_POINT('',(-0.9,0.241086232287497,-0.124362955689142));
#926=CARTESIAN_POINT('',(-1.,0.183811714888117,-0.0887609679202056));
#927=CARTESIAN_POINT('',(-1.,0.136748953184156,-0.0292989786134704));
#928=CARTESIAN_POINT('',(-1.,0.0717489531841564,0.00750000000000001));
#929=CARTESIAN_POINT('',(-1.,0.,0.00750000000000001));
#930=CARTESIAN_POINT('',(-0.9,0.191941848431246,-0.0606472167668566));
#931=CARTESIAN_POINT('',(-0.9,0.142797464574994,0.00306852215542897));
#932=CARTESIAN_POINT('',(-0.9,0.0749224645749941,0.0425));
#933=CARTESIAN_POINT('',(-0.9,0.,0.0425));
#934=CARTESIAN_POINT('',(-0.8,0.283,-0.298));
#935=CARTESIAN_POINT('',(-0.8,0.283,-0.194377954151343));
#936=CARTESIAN_POINT('',(-0.8,0.251297987982916,-0.100502954151343));
#937=CARTESIAN_POINT('',(-0.7,0.2905,-0.287));
#938=CARTESIAN_POINT('',(-0.7,0.2905,-0.178134761418655));
#939=CARTESIAN_POINT('',(-0.7,0.257957828653841,-0.079509761418655));
#940=CARTESIAN_POINT('',(-0.8,0.200071981974374,-0.0325334656135075));
#941=CARTESIAN_POINT('',(-0.8,0.148845975965832,0.0354360229243283));
#942=CARTESIAN_POINT('',(-0.8,0.0780959759658318,0.0775));
#943=CARTESIAN_POINT('',(-0.8,0.,0.0775));
#944=CARTESIAN_POINT('',(-0.7,0.205374242980762,-0.00810107106399124));
#945=CARTESIAN_POINT('',(-0.7,0.152790657307682,0.0633076192906725));
#946=CARTESIAN_POINT('',(-0.7,0.0801656573076824,0.1075));
#947=CARTESIAN_POINT('',(-0.7,0.,0.1075));
#948=CARTESIAN_POINT('',(-0.6,0.298,-0.276));
#949=CARTESIAN_POINT('',(-0.6,0.298,-0.161891568685967));
#950=CARTESIAN_POINT('',(-0.6,0.264617669324767,-0.0585165686859667));
#951=CARTESIAN_POINT('',(-0.5,0.3025,-0.2665));
#952=CARTESIAN_POINT('',(-0.5,0.3025,-0.148321195380327));
#953=CARTESIAN_POINT('',(-0.5,0.268613573727322,-0.041258695380327));
#954=CARTESIAN_POINT('',(-0.6,0.21067650398715,0.016331323485525));
#955=CARTESIAN_POINT('',(-0.6,0.156735338649533,0.0911792156570167));
#956=CARTESIAN_POINT('',(-0.6,0.0822353386495331,0.1375));
#957=CARTESIAN_POINT('',(-0.6,0.,0.1375));
#958=CARTESIAN_POINT('',(-0.5,0.213857860590983,0.0362591034647547));
#959=CARTESIAN_POINT('',(-0.5,0.159102147454643,0.113776902309837));
#960=CARTESIAN_POINT('',(-0.5,0.0834771474546435,0.16175));
#961=CARTESIAN_POINT('',(-0.5,0.,0.16175));
#962=CARTESIAN_POINT('',(-0.4,0.307,-0.257));
#963=CARTESIAN_POINT('',(-0.4,0.307,-0.134750822074687));
#964=CARTESIAN_POINT('',(-0.4,0.272609478129877,-0.0240008220746873));
#965=CARTESIAN_POINT('',(-0.3,0.3085,-0.25));
#966=CARTESIAN_POINT('',(-0.3,0.3085,-0.12540518322059));
#967=CARTESIAN_POINT('',(-0.3,0.273941446264062,-0.0125301832205899));
#968=CARTESIAN_POINT('',(-0.4,0.217039217194815,0.0561868834439845));
#969=CARTESIAN_POINT('',(-0.4,0.161468956259754,0.136374588962656));
#970=CARTESIAN_POINT('',(-0.4,0.0847189562597539,0.186));
#971=CARTESIAN_POINT('',(-0.4,0.,0.186));
#972=CARTESIAN_POINT('',(-0.3,0.218099669396093,0.0691961125845576));
#973=CARTESIAN_POINT('',(-0.3,0.162257892528124,0.150922408389705));
#974=CARTESIAN_POINT('',(-0.3,0.085132892528124,0.2015));
#975=CARTESIAN_POINT('',(-0.3,0.,0.2015));
#976=CARTESIAN_POINT('',(-0.2,0.31,-0.243));
#977=CARTESIAN_POINT('',(-0.2,0.31,-0.116059544366493));
#978=CARTESIAN_POINT('',(-0.2,0.275273414398247,-0.00105954436649247));
#979=CARTESIAN_POINT('',(-0.1,0.308,-0.235));
#980=CARTESIAN_POINT('',(-0.1,0.308,-0.10674874618332));
#981=CARTESIAN_POINT('',(-0.1,0.273497456886,0.00943875381667955));
#982=CARTESIAN_POINT('',(-0.2,0.219160121597371,0.0822053417251307));
#983=CARTESIAN_POINT('',(-0.2,0.163046828796494,0.165470227816754));
#984=CARTESIAN_POINT('',(-0.2,0.0855468287964942,0.217));
#985=CARTESIAN_POINT('',(-0.2,0.,0.217));
#986=CARTESIAN_POINT('',(-0.1,0.217746185329,0.0935634403625097));
#987=CARTESIAN_POINT('',(-0.1,0.161994913772001,0.17768812690834));
#988=CARTESIAN_POINT('',(-0.1,0.0849949137720006,0.22975));
#989=CARTESIAN_POINT('',(-0.1,0.,0.22975));
#990=CARTESIAN_POINT('',(0.,0.306,-0.227));
#991=CARTESIAN_POINT('',(0.,0.306,-0.0974379480001484));
#992=CARTESIAN_POINT('',(0.,0.271721499373754,0.0199370519998516));
#993=CARTESIAN_POINT('',(0.1,0.3,-0.2205));
#994=CARTESIAN_POINT('',(0.1,0.3,-0.0921797568052588));
#995=CARTESIAN_POINT('',(0.1,0.266393626837013,0.0240702431947412));
#996=CARTESIAN_POINT('',(0.,0.21633224906063,0.104921538999889));
#997=CARTESIAN_POINT('',(0.,0.160942998747507,0.189906025999926));
#998=CARTESIAN_POINT('',(0.,0.0844429987475071,0.2425));
#999=CARTESIAN_POINT('',(0.,0.,0.2425));
#1000=CARTESIAN_POINT('',(0.1,0.21209044025552,0.108240182396056));
#1001=CARTESIAN_POINT('',(0.1,0.157787253674027,0.192410121597371));
#1002=CARTESIAN_POINT('',(0.1,0.0827872536740266,0.2445));
#1003=CARTESIAN_POINT('',(0.1,0.,0.2445));
#1004=CARTESIAN_POINT('',(0.2,0.294,-0.214));
#1005=CARTESIAN_POINT('',(0.2,0.294,-0.0869215656103692));
#1006=CARTESIAN_POINT('',(0.2,0.261065754300273,0.0282034343896309));
#1007=CARTESIAN_POINT('',(0.3,0.2835,-0.2065));
#1008=CARTESIAN_POINT('',(0.3,0.2835,-0.0831469920257004));
#1009=CARTESIAN_POINT('',(0.3,0.251741977360978,0.0286030079742997));
#1010=CARTESIAN_POINT('',(0.2,0.20784863145041,0.111558825792223));
#1011=CARTESIAN_POINT('',(0.2,0.154631508600546,0.194914217194815));
#1012=CARTESIAN_POINT('',(0.2,0.0811315086005461,0.2465));
#1013=CARTESIAN_POINT('',(0.2,0.,0.2465));
#1014=CARTESIAN_POINT('',(0.3,0.200425466041466,0.109514755980725));
#1015=CARTESIAN_POINT('',(0.3,0.149108954721955,0.19042650398715));
#1016=CARTESIAN_POINT('',(0.3,0.0782339547219552,0.2405));
#1017=CARTESIAN_POINT('',(0.3,0.,0.2405));
#1018=CARTESIAN_POINT('',(0.4,0.273,-0.199));
#1019=CARTESIAN_POINT('',(0.4,0.273,-0.0793724184410316));
#1020=CARTESIAN_POINT('',(0.4,0.242418200421682,0.0290025815589685));
#1021=CARTESIAN_POINT('',(0.5,0.25825,-0.188));
#1022=CARTESIAN_POINT('',(0.5,0.25825,-0.0747194412227069));
#1023=CARTESIAN_POINT('',(0.5,0.229320513768862,0.0279055587772931));
#1024=CARTESIAN_POINT('',(0.4,0.193002300632523,0.107470686169226));
#1025=CARTESIAN_POINT('',(0.4,0.143586400843364,0.185938790779484));
#1026=CARTESIAN_POINT('',(0.4,0.0753364008433642,0.2345));
#1027=CARTESIAN_POINT('',(0.4,0.,0.2345));
#1028=CARTESIAN_POINT('',(0.5,0.182574520653293,0.10221041908297));
#1029=CARTESIAN_POINT('',(0.5,0.135828527537725,0.176515279388647));
#1030=CARTESIAN_POINT('',(0.5,0.0712660275377246,0.2225));
#1031=CARTESIAN_POINT('',(0.5,0.,0.2225));
#1032=CARTESIAN_POINT('',(0.6,0.2435,-0.177));
#1033=CARTESIAN_POINT('',(0.6,0.2435,-0.0700664640043823));
#1034=CARTESIAN_POINT('',(0.6,0.216222827116042,0.0268085359956177));
#1035=CARTESIAN_POINT('',(0.7,0.2265,-0.16));
#1036=CARTESIAN_POINT('',(0.7,0.2265,-0.0612072106156616));
#1037=CARTESIAN_POINT('',(0.7,0.201127188261945,0.0282927893843384));
#1038=CARTESIAN_POINT('',(0.6,0.172146740674064,0.0969501519967133));
#1039=CARTESIAN_POINT('',(0.6,0.128070654232085,0.167091767997809));
#1040=CARTESIAN_POINT('',(0.6,0.0671956542320849,0.2105));
#1041=CARTESIAN_POINT('',(0.6,0.,0.2105));
#1042=CARTESIAN_POINT('',(0.7,0.160128282392918,0.0930945920382538));
#1043=CARTESIAN_POINT('',(0.7,0.11912937652389,0.157896394692169));
#1044=CARTESIAN_POINT('',(0.7,0.0625043765238901,0.198));
#1045=CARTESIAN_POINT('',(0.7,0.,0.198));
#1046=CARTESIAN_POINT('',(0.8,0.2095,-0.143));
#1047=CARTESIAN_POINT('',(0.8,0.2095,-0.0523479572269409));
#1048=CARTESIAN_POINT('',(0.8,0.186031549407848,0.0297770427730592));
#1049=CARTESIAN_POINT('',(0.9,0.1935,-0.1225));
#1050=CARTESIAN_POINT('',(0.9,0.1935,-0.0407475869968987));
#1051=CARTESIAN_POINT('',(0.9,0.171823889309874,0.0333149130031013));
#1052=CARTESIAN_POINT('',(0.8,0.148109824111771,0.0892390320797944));
#1053=CARTESIAN_POINT('',(0.8,0.110188098815695,0.14870102138653));
#1054=CARTESIAN_POINT('',(0.8,0.0578130988156953,0.1855));
#1055=CARTESIAN_POINT('',(0.8,0.,0.1855));
#1056=CARTESIAN_POINT('',(0.9,0.13679833396481,0.086939309752326));
#1057=CARTESIAN_POINT('',(0.9,0.101772778619747,0.140563706501551));
#1058=CARTESIAN_POINT('',(0.9,0.0533977786197472,0.17375));
#1059=CARTESIAN_POINT('',(0.9,0.,0.17375));
#1060=CARTESIAN_POINT('',(1.,0.1775,-0.102));
#1061=CARTESIAN_POINT('',(1.,0.1775,-0.0291472167668566));
#1062=CARTESIAN_POINT('',(1.,0.1576162292119,0.0368527832331434));
#1063=CARTESIAN_POINT('',(1.1,0.165,-0.0805));
#1064=CARTESIAN_POINT('',(1.1,0.165,-0.0157879633781359));
#1065=CARTESIAN_POINT('',(1.1,0.146516494760357,0.0428370366218641));
#1066=CARTESIAN_POINT('',(1.,0.125486843817849,0.0846395874248576));
#1067=CARTESIAN_POINT('',(1.,0.0933574584237991,0.132426391616572));
#1068=CARTESIAN_POINT('',(1.,0.0489824584237991,0.162));
#1069=CARTESIAN_POINT('',(1.,0.,0.162));
#1070=CARTESIAN_POINT('',(1.1,0.116649742140536,0.0852840274663981));
#1071=CARTESIAN_POINT('',(1.1,0.0867829895207146,0.127731018310932));
#1072=CARTESIAN_POINT('',(1.1,0.0455329895207146,0.154));
#1073=CARTESIAN_POINT('',(1.1,0.,0.154));
#1074=CARTESIAN_POINT('',(1.2,0.1525,-0.059));
#1075=CARTESIAN_POINT('',(1.2,0.1525,-0.00242870998941516));
#1076=CARTESIAN_POINT('',(1.2,0.135416760308815,0.0488212900105848));
#1077=CARTESIAN_POINT('',(1.3,0.145,-0.0405));
#1078=CARTESIAN_POINT('',(1.3,0.145,0.00965527785084778));
#1079=CARTESIAN_POINT('',(1.3,0.12875691963789,0.0550927778508478));
#1080=CARTESIAN_POINT('',(1.4,0.1375,-0.022));
#1081=CARTESIAN_POINT('',(1.4,0.1375,0.0217392656911107));
#1082=CARTESIAN_POINT('',(1.4,0.122097078966964,0.0613642656911107));
#1083=CARTESIAN_POINT('',(1.2,0.107812640463223,0.0859284675079386));
#1084=CARTESIAN_POINT('',(1.2,0.0802085206176302,0.123035645005292));
#1085=CARTESIAN_POINT('',(1.2,0.0420835206176302,0.146));
#1086=CARTESIAN_POINT('',(1.2,0.,0.146));
#1087=CARTESIAN_POINT('',(1.3,0.102510379456835,0.0879914583881358));
#1088=CARTESIAN_POINT('',(1.3,0.0762638392757795,0.120890138925424));
#1089=CARTESIAN_POINT('',(1.3,0.0400138392757795,0.14125));
#1090=CARTESIAN_POINT('',(1.3,0.,0.14125));
#1091=CARTESIAN_POINT('',(1.4,0.0972081184504466,0.090054449268333));
#1092=CARTESIAN_POINT('',(1.4,0.0723191579339288,0.118744632845555));
#1093=CARTESIAN_POINT('',(1.4,0.0379441579339289,0.1365));
#1094=CARTESIAN_POINT('',(1.4,0.,0.1365));
#1095=B_SPLINE_SURFACE_WITH_KNOTS('Surf_HNTVYIKYFQ, Fuselage, 0, 4',1,3,((#1096, #1097, #1098, #1102, #1103, #1104, #1105),(#1099, #1100, #1101, #1106, #1107, #1108, #1109)),.UNSPECIFIED.,.F.,.F.,.F.,(2,2),(4,3,4),(0.,1.),(0.,1.,2.),.PIECEWISE_BEZIER_KNOTS.);
#1096=CARTESIAN_POINT('',(1.4,0.,-0.1805));
#1097=CARTESIAN_POINT('',(1.4,0.0379441579339289,-0.1805));
#1098=CARTESIAN_POINT('',(1.4,0.0723191579339288,-0.162744632845555));
#1099=CARTESIAN_POINT('',(1.65,0.,-0.13));
#1100=CARTESIAN_POINT('',(1.65,0.0358744765920782,-0.13));
#1101=CARTESIAN_POINT('',(1.65,0.0683744765920782,-0.115437238296039));
#1102=CARTESIAN_POINT('',(1.4,0.0972081184504466,-0.134054449268333));
#1103=CARTESIAN_POINT('',(1.4,0.122097078966964,-0.105364265691111));
#1104=CARTESIAN_POINT('',(1.4,0.1375,-0.0657392656911107));
#1105=CARTESIAN_POINT('',(1.4,0.1375,-0.022));
#1106=CARTESIAN_POINT('',(1.65,0.0919058574440587,-0.0919058574440587));
#1107=CARTESIAN_POINT('',(1.65,0.115437238296039,-0.0683744765920782));
#1108=CARTESIAN_POINT('',(1.65,0.13,-0.0358744765920782));
#1109=CARTESIAN_POINT('',(1.65,0.13,0.));
#1110=B_SPLINE_SURFACE_WITH_KNOTS('Surf_HNTVYIKYFQ, Fuselage, 0, 5',1,3,((#1111, #1112, #1113, #1117, #1118, #1119, #1120),(#1114, #1115, #1116, #1121, #1122, #1123, #1124)),.UNSPECIFIED.,.F.,.F.,.F.,(2,2),(4,3,4),(0.,1.),(0.,1.,2.),.PIECEWISE_BEZIER_KNOTS.);
#1111=CARTESIAN_POINT('',(1.4,-0.1375,-0.022));
#1112=CARTESIAN_POINT('',(1.4,-0.1375,-0.0657392656911107));
#1113=CARTESIAN_POINT('',(1.4,-0.122097078966964,-0.105364265691111));
#1114=CARTESIAN_POINT('',(1.65,-0.13,0.));
#1115=CARTESIAN_POINT('',(1.65,-0.13,-0.0358744765920782));
#1116=CARTESIAN_POINT('',(1.65,-0.115437238296039,-0.0683744765920782));
#1117=CARTESIAN_POINT('',(1.4,-0.0972081184504466,-0.134054449268333));
#1118=CARTESIAN_POINT('',(1.4,-0.0723191579339289,-0.162744632845555));
#1119=CARTESIAN_POINT('',(1.4,-0.0379441579339289,-0.1805));
#1120=CARTESIAN_POINT('',(1.4,0.,-0.1805));
#1121=CARTESIAN_POINT('',(1.65,-0.0919058574440586,-0.0919058574440587));
#1122=CARTESIAN_POINT('',(1.65,-0.0683744765920782,-0.115437238296039));
#1123=CARTESIAN_POINT('',(1.65,-0.0358744765920782,-0.13));
#1124=CARTESIAN_POINT('',(1.65,0.,-0.13));
#1125=B_SPLINE_SURFACE_WITH_KNOTS('Surf_HNTVYIKYFQ, Fuselage, 0, 6',1,3,((#1126, #1127, #1128, #1132, #1133, #1134, #1135),(#1129, #1130, #1131, #1136, #1137, #1138, #1139)),.UNSPECIFIED.,.F.,.F.,.F.,(2,2),(4,3,4),(0.,1.),(0.,1.,2.),.PIECEWISE_BEZIER_KNOTS.);
#1126=CARTESIAN_POINT('',(1.4,0.,0.1365));
#1127=CARTESIAN_POINT('',(1.4,-0.0379441579339289,0.1365));
#1128=CARTESIAN_POINT('',(1.4,-0.0723191579339289,0.118744632845555));
#1129=CARTESIAN_POINT('',(1.65,0.,0.13));
#1130=CARTESIAN_POINT('',(1.65,-0.0358744765920782,0.13));
#1131=CARTESIAN_POINT('',(1.65,-0.0683744765920782,0.115437238296039));
#1132=CARTESIAN_POINT('',(1.4,-0.0972081184504466,0.090054449268333));
#1133=CARTESIAN_POINT('',(1.4,-0.122097078966964,0.0613642656911107));
#1134=CARTESIAN_POINT('',(1.4,-0.1375,0.0217392656911107));
#1135=CARTESIAN_POINT('',(1.4,-0.1375,-0.022));
#1136=CARTESIAN_POINT('',(1.65,-0.0919058574440586,0.0919058574440587));
#1137=CARTESIAN_POINT('',(1.65,-0.115437238296039,0.0683744765920782));
#1138=CARTESIAN_POINT('',(1.65,-0.13,0.0358744765920782));
#1139=CARTESIAN_POINT('',(1.65,-0.13,0.));
#1140=B_SPLINE_SURFACE_WITH_KNOTS('Surf_HNTVYIKYFQ, Fuselage, 0, 7',1,3,((#1141, #1142, #1143, #1147, #1148, #1149, #1150),(#1144, #1145, #1146, #1151, #1152, #1153, #1154)),.UNSPECIFIED.,.F.,.F.,.F.,(2,2),(4,3,4),(0.,1.),(0.,1.,2.),.PIECEWISE_BEZIER_KNOTS.);
#1141=CARTESIAN_POINT('',(1.4,0.1375,-0.022));
#1142=CARTESIAN_POINT('',(1.4,0.1375,0.0217392656911107));
#1143=CARTESIAN_POINT('',(1.4,0.122097078966964,0.0613642656911107));
#1144=CARTESIAN_POINT('',(1.65,0.13,0.));
#1145=CARTESIAN_POINT('',(1.65,0.13,0.0358744765920782));
#1146=CARTESIAN_POINT('',(1.65,0.115437238296039,0.0683744765920782));
#1147=CARTESIAN_POINT('',(1.4,0.0972081184504466,0.090054449268333));
#1148=CARTESIAN_POINT('',(1.4,0.0723191579339288,0.118744632845555));
#1149=CARTESIAN_POINT('',(1.4,0.0379441579339289,0.1365));
#1150=CARTESIAN_POINT('',(1.4,0.,0.1365));
#1151=CARTESIAN_POINT('',(1.65,0.0919058574440587,0.0919058574440587));
#1152=CARTESIAN_POINT('',(1.65,0.0683744765920782,0.115437238296039));
#1153=CARTESIAN_POINT('',(1.65,0.0358744765920782,0.13));
#1154=CARTESIAN_POINT('',(1.65,0.,0.13));
#1155=B_SPLINE_SURFACE_WITH_KNOTS('Surf_HNTVYIKYFQ, Fuselage, 0, 8',1,3,((#1156, #1157, #1158, #1159, #1160, #1161, #1162),(#1163, #1164, #1165, #1166, #1167, #1168, #1169),(#1170, #1171, #1172, #1173, #1174, #1175, #1176),(#1177, #1178, #1179, #1183, #1184, #1185, #1186),(#1180, #1181, #1182, #1187, #1188, #1189, #1190)),.UNSPECIFIED.,.F.,.F.,.F.,(2,1,1,1,2),(4,3,4),(0.,1.,2.,3.,4.),(0.,1.,2.),.PIECEWISE_BEZIER_KNOTS.);
#1156=CARTESIAN_POINT('',(1.65,0.,-0.13));
#1157=CARTESIAN_POINT('',(1.65,0.0358744765920782,-0.13));
#1158=CARTESIAN_POINT('',(1.65,0.0683744765920782,-0.115437238296039));
#1159=CARTESIAN_POINT('',(1.65,0.0919058574440587,-0.0919058574440587));
#1160=CARTESIAN_POINT('',(1.65,0.115437238296039,-0.0683744765920782));
#1161=CARTESIAN_POINT('',(1.65,0.13,-0.0358744765920782));
#1162=CARTESIAN_POINT('',(1.65,0.13,0.));
#1163=CARTESIAN_POINT('',(4.,0.,-0.09));
#1164=CARTESIAN_POINT('',(4.,0.024836176102208,-0.09));
#1165=CARTESIAN_POINT('',(4.,0.0473361761022079,-0.079918088051104));
#1166=CARTESIAN_POINT('',(4.,0.063627132076656,-0.063627132076656));
#1167=CARTESIAN_POINT('',(4.,0.079918088051104,-0.047336176102208));
#1168=CARTESIAN_POINT('',(4.,0.09,-0.024836176102208));
#1169=CARTESIAN_POINT('',(4.,0.09,0.));
#1170=CARTESIAN_POINT('',(4.09,0.,-0.0885));
#1171=CARTESIAN_POINT('',(4.09,0.0244222398338378,-0.0885));
#1172=CARTESIAN_POINT('',(4.09,0.0465472398338378,-0.0784740986730423));
#1173=CARTESIAN_POINT('',(4.09,0.0625666798753784,-0.0622736480095634));
#1174=CARTESIAN_POINT('',(4.09,0.0785861199169189,-0.0460731973460846));
#1175=CARTESIAN_POINT('',(4.09,0.0885,-0.0236981973460846));
#1176=CARTESIAN_POINT('',(4.09,0.0885,0.001));
#1177=CARTESIAN_POINT('',(4.18,0.,-0.0865));
#1178=CARTESIAN_POINT('',(4.18,0.0215246859552469,-0.0865));
#1179=CARTESIAN_POINT('',(4.18,0.0410246859552469,-0.0765861199169189));
#1180=CARTESIAN_POINT('',(4.27,0.,-0.0855));
#1181=CARTESIAN_POINT('',(4.27,0.0160055357103118,-0.0855));
#1182=CARTESIAN_POINT('',(4.27,0.0305055357103118,-0.0756981411607955));
#1183=CARTESIAN_POINT('',(4.18,0.0551435144664352,-0.0605666798753784));
#1184=CARTESIAN_POINT('',(4.18,0.0692623429776234,-0.0445472398338378));
#1185=CARTESIAN_POINT('',(4.18,0.078,-0.0224222398338378));
#1186=CARTESIAN_POINT('',(4.18,0.078,0.002));
#1187=CARTESIAN_POINT('',(4.27,0.0410041517827339,-0.0598597117411933));
#1188=CARTESIAN_POINT('',(4.27,0.0515027678551559,-0.0440212823215911));
#1189=CARTESIAN_POINT('',(4.27,0.058,-0.0221462823215911));
#1190=CARTESIAN_POINT('',(4.27,0.058,0.002));
#1191=B_SPLINE_SURFACE_WITH_KNOTS('Surf_HNTVYIKYFQ, Fuselage, 0, 9',1,3,((#1192, #1193, #1194, #1195, #1196, #1197, #1198),(#1199, #1200, #1201, #1202, #1203, #1204, #1205),(#1206, #1207, #1208, #1209, #1210, #1211, #1212),(#1213, #1214, #1215, #1219, #1220, #1221, #1222),(#1216, #1217, #1218, #1223, #1224, #1225, #1226)),.UNSPECIFIED.,.F.,.F.,.F.,(2,1,1,1,2),(4,3,4),(0.,1.,2.,3.,4.),(0.,1.,2.),.PIECEWISE_BEZIER_KNOTS.);
#1192=CARTESIAN_POINT('',(1.65,-0.13,0.));
#1193=CARTESIAN_POINT('',(1.65,-0.13,-0.0358744765920782));
#1194=CARTESIAN_POINT('',(1.65,-0.115437238296039,-0.0683744765920782));
#1195=CARTESIAN_POINT('',(1.65,-0.0919058574440586,-0.0919058574440587));
#1196=CARTESIAN_POINT('',(1.65,-0.0683744765920782,-0.115437238296039));
#1197=CARTESIAN_POINT('',(1.65,-0.0358744765920782,-0.13));
#1198=CARTESIAN_POINT('',(1.65,0.,-0.13));
#1199=CARTESIAN_POINT('',(4.,-0.09,0.));
#1200=CARTESIAN_POINT('',(4.,-0.09,-0.024836176102208));
#1201=CARTESIAN_POINT('',(4.,-0.079918088051104,-0.047336176102208));
#1202=CARTESIAN_POINT('',(4.,-0.063627132076656,-0.063627132076656));
#1203=CARTESIAN_POINT('',(4.,-0.047336176102208,-0.079918088051104));
#1204=CARTESIAN_POINT('',(4.,-0.024836176102208,-0.09));
#1205=CARTESIAN_POINT('',(4.,0.,-0.09));
#1206=CARTESIAN_POINT('',(4.09,-0.0885,0.001));
#1207=CARTESIAN_POINT('',(4.09,-0.0885,-0.0236981973460846));
#1208=CARTESIAN_POINT('',(4.09,-0.0785861199169189,-0.0460731973460846));
#1209=CARTESIAN_POINT('',(4.09,-0.0625666798753784,-0.0622736480095634));
#1210=CARTESIAN_POINT('',(4.09,-0.0465472398338379,-0.0784740986730423));
#1211=CARTESIAN_POINT('',(4.09,-0.0244222398338378,-0.0885));
#1212=CARTESIAN_POINT('',(4.09,0.,-0.0885));
#1213=CARTESIAN_POINT('',(4.18,-0.078,0.002));
#1214=CARTESIAN_POINT('',(4.18,-0.078,-0.0224222398338378));
#1215=CARTESIAN_POINT('',(4.18,-0.0692623429776235,-0.0445472398338378));
#1216=CARTESIAN_POINT('',(4.27,-0.058,0.002));
#1217=CARTESIAN_POINT('',(4.27,-0.058,-0.0221462823215911));
#1218=CARTESIAN_POINT('',(4.27,-0.0515027678551559,-0.0440212823215911));
#1219=CARTESIAN_POINT('',(4.18,-0.0551435144664352,-0.0605666798753784));
#1220=CARTESIAN_POINT('',(4.18,-0.0410246859552469,-0.0765861199169189));
#1221=CARTESIAN_POINT('',(4.18,-0.0215246859552469,-0.0865));
#1222=CARTESIAN_POINT('',(4.18,0.,-0.0865));
#1223=CARTESIAN_POINT('',(4.27,-0.0410041517827339,-0.0598597117411933));
#1224=CARTESIAN_POINT('',(4.27,-0.0305055357103118,-0.0756981411607955));
#1225=CARTESIAN_POINT('',(4.27,-0.0160055357103118,-0.0855));
#1226=CARTESIAN_POINT('',(4.27,0.,-0.0855));
#1227=B_SPLINE_SURFACE_WITH_KNOTS('Surf_HNTVYIKYFQ, Fuselage, 0, 10',1,3,((#1228, #1229, #1230, #1231, #1232, #1233, #1234),(#1235, #1236, #1237, #1238, #1239, #1240, #1241),(#1242, #1243, #1244, #1245, #1246, #1247, #1248),(#1249, #1250, #1251, #1255, #1256, #1257, #1258),(#1252, #1253, #1254, #1259, #1260, #1261, #1262)),.UNSPECIFIED.,.F.,.F.,.F.,(2,1,1,1,2),(4,3,4),(0.,1.,2.,3.,4.),(0.,1.,2.),.PIECEWISE_BEZIER_KNOTS.);
#1228=CARTESIAN_POINT('',(1.65,0.,0.13));
#1229=CARTESIAN_POINT('',(1.65,-0.0358744765920782,0.13));
#1230=CARTESIAN_POINT('',(1.65,-0.0683744765920782,0.115437238296039));
#1231=CARTESIAN_POINT('',(1.65,-0.0919058574440586,0.0919058574440587));
#1232=CARTESIAN_POINT('',(1.65,-0.115437238296039,0.0683744765920782));
#1233=CARTESIAN_POINT('',(1.65,-0.13,0.0358744765920782));
#1234=CARTESIAN_POINT('',(1.65,-0.13,0.));
#1235=CARTESIAN_POINT('',(4.,0.,0.09));
#1236=CARTESIAN_POINT('',(4.,-0.024836176102208,0.09));
#1237=CARTESIAN_POINT('',(4.,-0.047336176102208,0.079918088051104));
#1238=CARTESIAN_POINT('',(4.,-0.063627132076656,0.063627132076656));
#1239=CARTESIAN_POINT('',(4.,-0.079918088051104,0.047336176102208));
#1240=CARTESIAN_POINT('',(4.,-0.09,0.024836176102208));
#1241=CARTESIAN_POINT('',(4.,-0.09,0.));
#1242=CARTESIAN_POINT('',(4.09,0.,0.0905));
#1243=CARTESIAN_POINT('',(4.09,-0.0244222398338378,0.0905));
#1244=CARTESIAN_POINT('',(4.09,-0.0465472398338379,0.0804740986730423));
#1245=CARTESIAN_POINT('',(4.09,-0.0625666798753784,0.0642736480095634));
#1246=CARTESIAN_POINT('',(4.09,-0.0785861199169189,0.0480731973460846));
#1247=CARTESIAN_POINT('',(4.09,-0.0885,0.0256981973460846));
#1248=CARTESIAN_POINT('',(4.09,-0.0885,0.001));
#1249=CARTESIAN_POINT('',(4.18,0.,0.0905));
#1250=CARTESIAN_POINT('',(4.18,-0.0215246859552469,0.0905));
#1251=CARTESIAN_POINT('',(4.18,-0.0410246859552469,0.0805861199169189));
#1252=CARTESIAN_POINT('',(4.27,0.,0.0895));
#1253=CARTESIAN_POINT('',(4.27,-0.0160055357103118,0.0895));
#1254=CARTESIAN_POINT('',(4.27,-0.0305055357103118,0.0796981411607955));
#1255=CARTESIAN_POINT('',(4.18,-0.0551435144664352,0.0645666798753784));
#1256=CARTESIAN_POINT('',(4.18,-0.0692623429776235,0.0485472398338379));
#1257=CARTESIAN_POINT('',(4.18,-0.078,0.0264222398338378));
#1258=CARTESIAN_POINT('',(4.18,-0.078,0.002));
#1259=CARTESIAN_POINT('',(4.27,-0.0410041517827339,0.0638597117411933));
#1260=CARTESIAN_POINT('',(4.27,-0.0515027678551559,0.0480212823215911));
#1261=CARTESIAN_POINT('',(4.27,-0.058,0.0261462823215911));
#1262=CARTESIAN_POINT('',(4.27,-0.058,0.002));
#1263=B_SPLINE_SURFACE_WITH_KNOTS('Surf_HNTVYIKYFQ, Fuselage, 0, 11',1,3,((#1264, #1265, #1266, #1267, #1268, #1269, #1270),(#1271, #1272, #1273, #1274, #1275, #1276, #1277),(#1278, #1279, #1280, #1281, #1282, #1283, #1284),(#1285, #1286, #1287, #1291, #1292, #1293, #1294),(#1288, #1289, #1290, #1295, #1296, #1297, #1298)),.UNSPECIFIED.,.F.,.F.,.F.,(2,1,1,1,2),(4,3,4),(0.,1.,2.,3.,4.),(0.,1.,2.),.PIECEWISE_BEZIER_KNOTS.);
#1264=CARTESIAN_POINT('',(1.65,0.13,0.));
#1265=CARTESIAN_POINT('',(1.65,0.13,0.0358744765920782));
#1266=CARTESIAN_POINT('',(1.65,0.115437238296039,0.0683744765920782));
#1267=CARTESIAN_POINT('',(1.65,0.0919058574440587,0.0919058574440587));
#1268=CARTESIAN_POINT('',(1.65,0.0683744765920782,0.115437238296039));
#1269=CARTESIAN_POINT('',(1.65,0.0358744765920782,0.13));
#1270=CARTESIAN_POINT('',(1.65,0.,0.13));
#1271=CARTESIAN_POINT('',(4.,0.09,0.));
#1272=CARTESIAN_POINT('',(4.,0.09,0.024836176102208));
#1273=CARTESIAN_POINT('',(4.,0.079918088051104,0.047336176102208));
#1274=CARTESIAN_POINT('',(4.,0.063627132076656,0.063627132076656));
#1275=CARTESIAN_POINT('',(4.,0.0473361761022079,0.079918088051104));
#1276=CARTESIAN_POINT('',(4.,0.024836176102208,0.09));
#1277=CARTESIAN_POINT('',(4.,0.,0.09));
#1278=CARTESIAN_POINT('',(4.09,0.0885,0.001));
#1279=CARTESIAN_POINT('',(4.09,0.0885,0.0256981973460846));
#1280=CARTESIAN_POINT('',(4.09,0.0785861199169189,0.0480731973460846));
#1281=CARTESIAN_POINT('',(4.09,0.0625666798753784,0.0642736480095634));
#1282=CARTESIAN_POINT('',(4.09,0.0465472398338378,0.0804740986730423));
#1283=CARTESIAN_POINT('',(4.09,0.0244222398338378,0.0905));
#1284=CARTESIAN_POINT('',(4.09,0.,0.0905));
#1285=CARTESIAN_POINT('',(4.18,0.078,0.002));
#1286=CARTESIAN_POINT('',(4.18,0.078,0.0264222398338378));
#1287=CARTESIAN_POINT('',(4.18,0.0692623429776234,0.0485472398338379));
#1288=CARTESIAN_POINT('',(4.27,0.058,0.002));
#1289=CARTESIAN_POINT('',(4.27,0.058,0.0261462823215911));
#1290=CARTESIAN_POINT('',(4.27,0.0515027678551559,0.0480212823215911));
#1291=CARTESIAN_POINT('',(4.18,0.0551435144664352,0.0645666798753784));
#1292=CARTESIAN_POINT('',(4.18,0.0410246859552469,0.0805861199169189));
#1293=CARTESIAN_POINT('',(4.18,0.0215246859552469,0.0905));
#1294=CARTESIAN_POINT('',(4.18,0.,0.0905));
#1295=CARTESIAN_POINT('',(4.27,0.0410041517827339,0.0638597117411933));
#1296=CARTESIAN_POINT('',(4.27,0.0305055357103118,0.0796981411607955));
#1297=CARTESIAN_POINT('',(4.27,0.0160055357103118,0.0895));
#1298=CARTESIAN_POINT('',(4.27,0.,0.0895));
#1299=B_SPLINE_SURFACE_WITH_KNOTS('Surf_HNTVYIKYFQ, Fuselage, 0, 12',2,3,((#1300, #1301, #1302, #1309, #1310, #1311, #1312),(#1303, #1304, #1305, #1313, #1314, #1315, #1316),(#1306, #1307, #1308, #1317, #1318, #1319, #1320)),.UNSPECIFIED.,.F.,.F.,.F.,(3,3),(4,3,4),(0.,1.),(0.,1.,2.),.PIECEWISE_BEZIER_KNOTS.);
#1300=CARTESIAN_POINT('',(4.27,0.,-0.0855));
#1301=CARTESIAN_POINT('',(4.27,0.0160055357103118,-0.0855));
#1302=CARTESIAN_POINT('',(4.27,0.0305055357103118,-0.0756981411607955));
#1303=CARTESIAN_POINT('',(4.363,-6.93889390390723E-18,-0.0645353585253851));
#1304=CARTESIAN_POINT('',(4.363,0.0161338396313463,-0.0645353585253851));
#1305=CARTESIAN_POINT('',(4.363,0.0322676792626926,-0.056468438709712));
#1306=CARTESIAN_POINT('',(4.363,0.,0.));
#1307=CARTESIAN_POINT('',(4.363,0.,0.));
#1308=CARTESIAN_POINT('',(4.363,0.,0.));
#1309=CARTESIAN_POINT('',(4.27,0.0410041517827339,-0.0598597117411933));
#1310=CARTESIAN_POINT('',(4.27,0.0515027678551559,-0.0440212823215911));
#1311=CARTESIAN_POINT('',(4.27,0.058,-0.0221462823215911));
#1312=CARTESIAN_POINT('',(4.27,0.058,0.002));
#1313=CARTESIAN_POINT('',(4.363,0.0443680589862023,-0.0443680589862023));
#1314=CARTESIAN_POINT('',(4.363,0.056468438709712,-0.0322676792626926));
#1315=CARTESIAN_POINT('',(4.363,0.0645353585253851,-0.0161338396313463));
#1316=CARTESIAN_POINT('',(4.363,0.0645353585253851,0.));
#1317=CARTESIAN_POINT('',(4.363,0.,0.));
#1318=CARTESIAN_POINT('',(4.363,0.,0.));
#1319=CARTESIAN_POINT('',(4.363,0.,0.));
#1320=CARTESIAN_POINT('',(4.363,0.,0.));
#1321=B_SPLINE_SURFACE_WITH_KNOTS('Surf_HNTVYIKYFQ, Fuselage, 0, 13',2,3,((#1322, #1323, #1324, #1331, #1332, #1333, #1334),(#1325, #1326, #1327, #1335, #1336, #1337, #1338),(#1328, #1329, #1330, #1339, #1340, #1341, #1342)),.UNSPECIFIED.,.F.,.F.,.F.,(3,3),(4,3,4),(0.,1.),(0.,1.,2.),.PIECEWISE_BEZIER_KNOTS.);
#1322=CARTESIAN_POINT('',(4.27,-0.058,0.002));
#1323=CARTESIAN_POINT('',(4.27,-0.058,-0.0221462823215911));
#1324=CARTESIAN_POINT('',(4.27,-0.0515027678551559,-0.0440212823215911));
#1325=CARTESIAN_POINT('',(4.363,-0.0645353585253851,-6.93889390390723E-18));
#1326=CARTESIAN_POINT('',(4.363,-0.0645353585253851,-0.0161338396313463));
#1327=CARTESIAN_POINT('',(4.363,-0.056468438709712,-0.0322676792626926));
#1328=CARTESIAN_POINT('',(4.363,0.,0.));
#1329=CARTESIAN_POINT('',(4.363,0.,0.));
#1330=CARTESIAN_POINT('',(4.363,0.,0.));
#1331=CARTESIAN_POINT('',(4.27,-0.0410041517827339,-0.0598597117411933));
#1332=CARTESIAN_POINT('',(4.27,-0.0305055357103118,-0.0756981411607955));
#1333=CARTESIAN_POINT('',(4.27,-0.0160055357103118,-0.0855));
#1334=CARTESIAN_POINT('',(4.27,0.,-0.0855));
#1335=CARTESIAN_POINT('',(4.363,-0.0443680589862023,-0.0443680589862023));
#1336=CARTESIAN_POINT('',(4.363,-0.0322676792626926,-0.056468438709712));
#1337=CARTESIAN_POINT('',(4.363,-0.0161338396313463,-0.0645353585253851));
#1338=CARTESIAN_POINT('',(4.363,-6.93889390390723E-18,-0.0645353585253851));
#1339=CARTESIAN_POINT('',(4.363,0.,0.));
#1340=CARTESIAN_POINT('',(4.363,0.,0.));
#1341=CARTESIAN_POINT('',(4.363,0.,0.));
#1342=CARTESIAN_POINT('',(4.363,0.,0.));
#1343=B_SPLINE_SURFACE_WITH_KNOTS('Surf_HNTVYIKYFQ, Fuselage, 0, 14',2,3,((#1344, #1345, #1346, #1353, #1354, #1355, #1356),(#1347, #1348, #1349, #1357, #1358, #1359, #1360),(#1350, #1351, #1352, #1361, #1362, #1363, #1364)),.UNSPECIFIED.,.F.,.F.,.F.,(3,3),(4,3,4),(0.,1.),(0.,1.,2.),.PIECEWISE_BEZIER_KNOTS.);
#1344=CARTESIAN_POINT('',(4.27,0.,0.0895));
#1345=CARTESIAN_POINT('',(4.27,-0.0160055357103118,0.0895));
#1346=CARTESIAN_POINT('',(4.27,-0.0305055357103118,0.0796981411607955));
#1347=CARTESIAN_POINT('',(4.363,-4.77048955893622E-18,0.0645353585253851));
#1348=CARTESIAN_POINT('',(4.363,-0.0161338396313463,0.0645353585253851));
#1349=CARTESIAN_POINT('',(4.363,-0.0322676792626926,0.056468438709712));
#1350=CARTESIAN_POINT('',(4.363,0.,0.));
#1351=CARTESIAN_POINT('',(4.363,0.,0.));
#1352=CARTESIAN_POINT('',(4.363,0.,0.));
#1353=CARTESIAN_POINT('',(4.27,-0.0410041517827339,0.0638597117411933));
#1354=CARTESIAN_POINT('',(4.27,-0.0515027678551559,0.0480212823215911));
#1355=CARTESIAN_POINT('',(4.27,-0.058,0.0261462823215911));
#1356=CARTESIAN_POINT('',(4.27,-0.058,0.002));
#1357=CARTESIAN_POINT('',(4.363,-0.0443680589862023,0.0443680589862023));
#1358=CARTESIAN_POINT('',(4.363,-0.056468438709712,0.0322676792626926));
#1359=CARTESIAN_POINT('',(4.363,-0.0645353585253851,0.0161338396313463));
#1360=CARTESIAN_POINT('',(4.363,-0.0645353585253851,-6.93889390390723E-18));
#1361=CARTESIAN_POINT('',(4.363,0.,0.));
#1362=CARTESIAN_POINT('',(4.363,0.,0.));
#1363=CARTESIAN_POINT('',(4.363,0.,0.));
#1364=CARTESIAN_POINT('',(4.363,0.,0.));
#1365=B_SPLINE_SURFACE_WITH_KNOTS('Surf_HNTVYIKYFQ, Fuselage, 0, 15',2,3,((#1366, #1367, #1368, #1375, #1376, #1377, #1378),(#1369, #1370, #1371, #1379, #1380, #1381, #1382),(#1372, #1373, #1374, #1383, #1384, #1385, #1386)),.UNSPECIFIED.,.F.,.F.,.F.,(3,3),(4,3,4),(0.,1.),(0.,1.,2.),.PIECEWISE_BEZIER_KNOTS.);
#1366=CARTESIAN_POINT('',(4.27,0.058,0.002));
#1367=CARTESIAN_POINT('',(4.27,0.058,0.0261462823215911));
#1368=CARTESIAN_POINT('',(4.27,0.0515027678551559,0.0480212823215911));
#1369=CARTESIAN_POINT('',(4.363,0.0645353585253851,0.));
#1370=CARTESIAN_POINT('',(4.363,0.0645353585253851,0.0161338396313463));
#1371=CARTESIAN_POINT('',(4.363,0.056468438709712,0.0322676792626926));
#1372=CARTESIAN_POINT('',(4.363,0.,0.));
#1373=CARTESIAN_POINT('',(4.363,0.,0.));
#1374=CARTESIAN_POINT('',(4.363,0.,0.));
#1375=CARTESIAN_POINT('',(4.27,0.0410041517827339,0.0638597117411933));
#1376=CARTESIAN_POINT('',(4.27,0.0305055357103118,0.0796981411607955));
#1377=CARTESIAN_POINT('',(4.27,0.0160055357103118,0.0895));
#1378=CARTESIAN_POINT('',(4.27,0.,0.0895));
#1379=CARTESIAN_POINT('',(4.363,0.0443680589862023,0.0443680589862023));
#1380=CARTESIAN_POINT('',(4.363,0.0322676792626926,0.056468438709712));
#1381=CARTESIAN_POINT('',(4.363,0.0161338396313463,0.0645353585253851));
#1382=CARTESIAN_POINT('',(4.363,-4.77048955893622E-18,0.0645353585253851));
#1383=CARTESIAN_POINT('',(4.363,0.,0.));
#1384=CARTESIAN_POINT('',(4.363,0.,0.));
#1385=CARTESIAN_POINT('',(4.363,0.,0.));
#1386=CARTESIAN_POINT('',(4.363,0.,0.));
#1387=GEOMETRIC_SET('HNTVYIKYFQ, Fuselage, 0',(#55,#315,#575,#835,#1095,#1110,#1125,#1140,#1155,#1191,#1227,#1263,#1299,#1321,#1343,#1365));
#1388=GEOMETRICALLY_BOUNDED_SURFACE_SHAPE_REPRESENTATION('',(#1387),#15);
#1389=SHAPE_REPRESENTATION_RELATIONSHIP('','',#29,#1388);
ENDSEC;
END-ISO-10303-21;
